<?xml version="1.0" standalone="no"?>
<!DOCTYPE svg PUBLIC "-//W3C//DTD SVG 20010904//EN"
 "http://www.w3.org/TR/2001/REC-SVG-20010904/DTD/svg10.dtd">
<svg version="1.0" xmlns="http://www.w3.org/2000/svg"
 width="800.000000pt" height="531.000000pt" viewBox="0 0 800.000000 531.000000"
 preserveAspectRatio="xMidYMid meet">

<g transform="translate(0.000000,531.000000) scale(0.100000,-0.100000)"
fill="#000000" stroke="none">
<path d="M5650 5298 c-30 -8 -32 -11 -17 -20 11 -6 16 -16 12 -28 -3 -10 0
-22 6 -26 8 -4 9 -3 5 4 -4 7 -1 12 8 12 9 0 16 -7 16 -15 0 -9 9 -15 21 -15
17 0 19 -3 10 -13 -17 -21 7 -61 43 -74 17 -5 38 -13 46 -16 8 -4 22 -3 30 3
12 7 9 13 -15 32 -16 13 -34 23 -40 23 -15 1 -35 15 -35 25 0 13 72 31 84 21
14 -11 97 -34 102 -28 3 3 -3 13 -13 23 -13 12 -14 19 -5 22 7 2 10 8 6 13 -3
5 -1 9 4 9 4 0 18 9 31 21 12 12 34 25 49 29 16 5 -41 8 -143 8 -93 0 -186 -4
-205 -10z"/>
<path d="M6062 5304 c4 -3 43 -7 87 -9 45 -1 87 -7 94 -13 18 -15 89 -20 115
-9 18 8 25 8 32 -3 6 -10 14 -11 37 -2 29 12 57 11 69 -1 4 -4 22 -7 40 -7 64
0 137 -22 157 -46 10 -13 26 -24 36 -24 10 0 26 -9 36 -20 10 -11 20 -18 23
-15 2 2 17 -2 32 -10 15 -8 30 -11 34 -8 4 4 9 -3 13 -15 6 -26 44 -38 70 -23
10 6 13 11 7 11 -18 0 -25 40 -7 40 8 0 11 5 8 10 -4 6 7 10 25 10 17 0 41 7
53 15 22 14 67 10 67 -6 0 -5 8 -9 18 -10 14 0 14 -2 -3 -8 -38 -15 36 -22 90
-8 48 12 273 14 410 3 33 -2 102 -6 153 -9 51 -2 95 -7 99 -10 3 -4 14 -2 24
3 11 6 19 6 21 0 2 -6 20 -7 48 -2 l45 8 3 82 3 82 -972 0 c-535 0 -970 -3
-967 -6z"/>
<path d="M5960 5248 c-2 -5 -3 -13 -4 -18 0 -6 -7 -15 -15 -19 -7 -5 -10 -14
-7 -20 9 -14 36 -14 56 -1 13 9 13 12 -1 23 -9 6 -18 19 -22 27 -3 8 -6 12 -7
8z"/>
<path d="M855 5231 c3 -6 -7 -9 -21 -8 -15 1 -29 -4 -31 -11 -3 -8 1 -12 12
-10 10 2 20 -3 23 -10 3 -10 -4 -13 -24 -10 -15 1 -29 -2 -31 -9 -6 -18 101
-36 222 -36 124 0 176 9 169 28 -3 7 4 15 15 18 12 3 19 11 16 19 -4 9 -24 13
-73 11 -37 -1 -88 3 -113 8 -52 11 -116 -4 -89 -21 12 -8 12 -10 1 -10 -7 0
-22 11 -33 25 -18 23 -57 37 -43 16z"/>
<path d="M4958 5223 c-28 -7 -21 -21 15 -29 17 -5 37 -9 43 -9 6 0 24 -9 40
-20 34 -23 145 -28 166 -7 6 6 20 12 30 12 11 0 18 7 18 19 0 16 -7 20 -37 20
-72 0 -170 8 -181 15 -6 3 -13 2 -16 -2 -5 -9 -35 -10 -51 -1 -6 3 -18 4 -27
2z"/>
<path d="M6010 5209 c0 -5 5 -7 10 -4 6 3 10 8 10 11 0 2 -4 4 -10 4 -5 0 -10
-5 -10 -11z"/>
<path d="M1245 5191 c3 -6 11 -8 17 -5 6 4 15 0 20 -7 8 -12 9 -11 5 1 -2 8
-14 17 -26 18 -15 2 -21 0 -16 -7z"/>
<path d="M1680 5164 c2 -35 57 -57 68 -26 2 8 -2 10 -13 6 -9 -4 -24 1 -35 11
-11 10 -20 14 -20 9z"/>
<path d="M1635 5120 c3 -5 10 -10 16 -10 5 0 9 5 9 10 0 6 -7 10 -16 10 -8 0
-12 -4 -9 -10z"/>
<path d="M6130 5109 c0 -6 -9 -8 -20 -4 -14 4 -20 2 -20 -8 0 -17 37 -30 98
-32 l43 -2 -31 18 c-17 11 -35 19 -40 19 -6 0 -10 5 -10 10 0 6 -4 10 -10 10
-5 0 -10 -5 -10 -11z"/>
<path d="M5739 5097 c6 -8 8 -17 4 -20 -3 -4 3 -7 15 -7 20 0 21 2 10 20 -7
11 -19 20 -27 20 -10 0 -11 -3 -2 -13z"/>
<path d="M156 5084 c-9 -24 -4 -26 79 -32 65 -4 75 -2 75 12 0 9 -8 16 -21 16
-11 0 -18 -4 -15 -9 7 -11 -44 -9 -62 2 -7 5 -21 5 -32 2 -15 -5 -18 -3 -14 9
3 9 4 16 1 16 -3 0 -8 -7 -11 -16z"/>
<path d="M5904 5076 c4 -18 1 -26 -11 -29 -15 -4 -15 -5 2 -6 22 0 65 31 65
48 0 6 -14 11 -31 11 -28 0 -31 -2 -25 -24z m26 4 c0 -5 -5 -10 -11 -10 -5 0
-7 5 -4 10 3 6 8 10 11 10 2 0 4 -4 4 -10z"/>
<path d="M1273 5072 c-49 -5 -40 -22 12 -22 25 0 45 4 45 9 0 12 -20 17 -57
13z"/>
<path d="M6957 5069 c7 -7 15 -10 18 -7 3 3 -2 9 -12 12 -14 6 -15 5 -6 -5z"/>
<path d="M1345 5060 c-3 -5 -1 -10 4 -10 6 0 11 5 11 10 0 6 -2 10 -4 10 -3 0
-8 -4 -11 -10z"/>
<path d="M7048 5063 c7 -3 16 -2 19 1 4 3 -2 6 -13 5 -11 0 -14 -3 -6 -6z"/>
<path d="M175 4930 c-3 -5 -2 -10 4 -10 5 0 13 5 16 10 3 6 2 10 -4 10 -5 0
-13 -4 -16 -10z"/>
<path d="M110 4910 c0 -5 4 -10 9 -10 6 0 13 5 16 10 3 6 -1 10 -9 10 -9 0
-16 -4 -16 -10z"/>
<path d="M288 4903 c7 -3 16 -2 19 1 4 3 -2 6 -13 5 -11 0 -14 -3 -6 -6z"/>
<path d="M4130 4550 c-19 -3 -47 -14 -62 -24 -15 -10 -32 -15 -37 -12 -6 4
-20 -7 -33 -24 -15 -22 -29 -30 -42 -26 -21 6 -127 -13 -140 -25 -5 -4 -19 -1
-32 7 -13 9 -32 13 -43 9 -12 -3 -31 1 -46 11 -22 14 -28 15 -35 4 -4 -7 -21
-12 -36 -12 -16 0 -38 1 -49 1 -11 -1 -40 0 -65 0 -24 0 -55 -7 -68 -15 -16
-11 -35 -14 -57 -10 -19 4 -36 2 -40 -4 -3 -5 -15 -10 -26 -10 -10 0 -19 -5
-19 -10 0 -7 -6 -7 -18 -1 -13 7 -22 7 -30 -1 -8 -8 -15 -8 -24 -1 -7 6 -29
11 -49 11 -21 1 -41 2 -45 3 -5 1 -16 0 -24 -3 -66 -23 -92 -28 -102 -21 -7 4
-24 6 -38 4 -43 -5 -120 -33 -115 -41 3 -5 -4 -6 -15 -3 -11 3 -28 2 -37 -2
-28 -12 -55 -11 -98 3 -22 7 -66 14 -98 16 -32 2 -63 8 -70 15 -17 17 -45 13
-56 -8 -6 -10 -18 -21 -26 -25 -9 -3 -13 -2 -10 4 3 6 1 10 -4 10 -6 0 -11 -4
-11 -10 0 -12 -51 -5 -86 13 -39 20 -82 19 -89 -2 -5 -17 -46 -38 -86 -46 -12
-3 -26 -10 -30 -16 -5 -8 -20 -8 -55 -1 -29 6 -55 7 -65 2 -57 -31 -164 -43
-469 -54 -69 -2 -132 -7 -142 -11 -22 -9 -232 -27 -340 -29 -47 0 -82 -4 -76
-7 5 -4 -6 -9 -26 -13 -20 -4 -40 -5 -44 -2 -4 2 -35 -1 -69 -8 -58 -12 -78
-12 -228 7 -11 1 -26 6 -32 10 -7 5 -19 5 -25 1 -15 -10 -77 -5 -99 7 -10 5
-20 4 -27 -3 -8 -8 -12 -9 -12 -1 0 6 -26 13 -57 15 -32 3 -65 7 -73 10 -8 3
-12 3 -7 1 18 -11 4 -20 -30 -20 -25 -1 -31 1 -18 6 11 3 21 12 23 19 1 9 -2
10 -16 1 -13 -8 -29 -8 -62 2 -41 11 -74 16 -155 22 l-30 2 -3 -2133 -2 -2132
4000 0 4000 0 0 500 c0 436 -2 501 -15 506 -8 4 -15 11 -15 16 0 6 7 8 15 4 8
-3 15 -1 15 5 0 6 -11 8 -29 4 -35 -7 -82 3 -80 19 3 28 -3 36 -28 36 l-28 -1
25 -14 25 -15 -30 7 c-16 3 -49 15 -71 25 -23 10 -66 19 -95 21 -30 1 -56 5
-59 9 -3 3 -19 9 -35 13 -21 5 -26 4 -16 -3 19 -14 -59 -14 -134 -1 -33 6 -71
12 -85 14 -14 2 -25 4 -25 5 0 8 -99 7 -134 -1 -67 -15 -284 -22 -276 -9 3 5
-2 10 -11 10 -39 0 -154 47 -154 63 0 4 5 5 10 2 6 -3 10 -2 10 2 0 9 -57 33
-78 33 -7 0 -43 32 -80 71 -182 194 -195 208 -255 286 -18 23 -65 78 -105 123
-41 45 -71 85 -68 88 4 3 13 -4 21 -15 10 -15 26 -21 50 -21 19 0 35 4 35 9 0
4 -7 5 -17 2 -10 -4 -14 -2 -10 4 11 17 46 23 40 7 -3 -8 1 -14 11 -14 9 0 16
-6 16 -14 0 -17 27 -29 43 -19 7 4 2 10 -13 14 l-25 7 25 1 c24 2 24 2 6 16
-11 8 -17 17 -15 20 3 2 23 -13 44 -35 21 -22 35 -43 30 -47 -4 -5 -10 -2 -12
5 -3 6 -10 9 -15 6 -7 -4 -8 -2 -4 4 4 7 3 12 -3 12 -20 0 -20 -18 0 -36 11
-10 17 -24 14 -33 -4 -9 3 -7 15 7 11 12 24 22 28 22 5 0 25 -17 45 -38 43
-43 51 -92 17 -92 -30 0 -24 -25 7 -27 15 0 21 2 14 7 -9 5 -8 9 4 14 23 9 24
8 18 -12 -2 -10 7 -31 21 -47 31 -36 31 -41 9 -55 -14 -8 -14 -10 -3 -9 36 3
41 0 30 -21 -10 -19 -6 -25 15 -20 5 1 14 -5 20 -12 16 -21 67 -58 79 -58 6 0
4 5 -4 10 -12 8 -11 10 7 10 16 0 21 -4 17 -15 -5 -11 1 -15 22 -15 l27 0 -24
26 c-22 25 -22 26 -3 16 24 -13 74 -68 74 -83 0 -5 9 -18 20 -29 11 -11 16
-20 10 -20 -5 0 -15 9 -22 19 -6 10 -17 17 -23 14 -7 -2 -15 3 -19 13 -5 14
-4 15 9 4 21 -18 19 3 -3 23 -15 14 -21 14 -44 3 -22 -12 -28 -12 -44 3 -17
15 -17 15 -4 -4 8 -11 15 -21 16 -23 1 -1 13 2 28 8 25 9 26 8 22 -16 -4 -19
-1 -24 9 -20 15 5 55 -29 55 -48 0 -5 3 -7 6 -3 4 3 19 0 35 -8 18 -10 30 -11
34 -5 8 13 25 13 25 -1 0 -5 -5 -7 -12 -3 -6 4 -8 3 -5 -3 4 -6 17 -10 29 -9
13 1 26 -3 30 -9 5 -6 8 -6 8 2 0 9 14 6 46 -7 37 -16 59 -19 112 -14 37 3
114 7 172 10 58 3 116 6 130 7 14 1 38 -2 53 -6 16 -4 26 -4 23 1 -2 4 11 8
30 8 20 0 29 -3 21 -8 -13 -9 17 -12 71 -9 17 2 32 -1 32 -6 0 -4 19 -8 43 -8
23 0 51 -4 62 -9 l20 -8 -20 -8 c-16 -7 -17 -9 -3 -9 9 -1 20 4 23 9 8 12 45
13 45 1 0 -5 -10 -7 -22 -5 -32 7 37 -20 100 -39 l52 -15 0 1562 c0 1480 -1
1562 -17 1564 -46 6 -183 7 -183 2 0 -4 17 -11 38 -16 33 -8 30 -9 -34 -9 -42
0 -82 -6 -97 -14 -23 -12 -39 -12 -124 3 -54 9 -106 14 -115 11 -9 -4 -34 5
-58 20 -24 15 -51 25 -62 22 -11 -3 -35 7 -61 27 -23 18 -62 43 -87 56 -25 14
-49 30 -55 36 -21 24 -47 29 -117 23 -40 -3 -80 -2 -88 1 -8 4 -45 3 -83 -3
-66 -10 -68 -10 -110 20 -57 42 -122 61 -149 44 -13 -8 -24 -9 -31 -3 -21 17
-52 17 -79 0 -28 -18 -28 -18 -142 -18 -78 0 -189 22 -214 42 -22 19 -148 23
-174 6 -22 -14 -60 -24 -138 -34 -19 -3 -44 -6 -55 -8 -11 -1 -31 4 -43 11
-21 13 -26 13 -42 -2 -15 -14 -33 -16 -106 -12 -48 3 -97 2 -109 -3 -18 -7
-34 -2 -70 21 -59 37 -162 52 -177 26 -10 -19 -43 -23 -54 -6 -5 8 -9 8 -14
-1 -5 -9 -17 -9 -43 -2 -22 6 -60 7 -94 2 -33 -4 -65 -4 -75 2 -11 5 -18 5
-18 -1 0 -5 6 -12 13 -15 6 -3 1 -3 -13 1 -30 9 -54 9 -148 -1 -52 -5 -78 -3
-88 5 -10 8 -18 8 -27 0 -8 -6 -17 -7 -23 -1 -6 6 -24 4 -49 -4 -35 -12 -43
-12 -70 2 -16 9 -37 17 -46 18 -10 1 -46 15 -82 32 -36 16 -68 28 -71 25 -3
-3 -12 0 -21 7 -8 7 -22 9 -31 6 -10 -4 -26 1 -38 12 -26 24 -51 30 -96 22z
m75 -21 c11 -16 1 -19 -13 -3 -7 8 -8 14 -3 14 5 0 13 -5 16 -11z m-80 -9
c-27 -12 -43 -12 -25 0 8 5 22 9 30 9 10 0 8 -3 -5 -9z m58 -13 c-5 -8 -8 -7
-11 1 -2 7 -9 9 -14 6 -7 -4 -8 -2 -4 4 4 6 13 9 21 6 8 -4 12 -11 8 -17z
m144 -25 c14 -2 48 -14 75 -28 27 -14 57 -24 67 -22 9 1 30 -7 45 -20 22 -17
32 -19 42 -11 8 7 27 9 45 5 18 -3 28 -2 24 4 -9 15 2 12 33 -7 26 -17 26 -17
13 0 -12 15 -12 17 2 11 25 -9 30 -37 10 -52 -11 -8 -19 -9 -21 -2 -2 5 -11
10 -20 11 -11 0 -12 2 -4 6 6 2 10 9 6 14 -3 5 -11 6 -17 2 -6 -4 -23 -8 -36
-9 -20 -2 -22 -1 -11 6 13 8 13 10 -1 10 -15 0 -34 -25 -31 -40 0 -3 -8 -6
-19 -6 -18 0 -18 2 -5 12 21 15 21 28 0 20 -9 -4 -13 -2 -8 5 4 8 -1 9 -15 4
-16 -5 -32 1 -56 20 -19 14 -35 21 -35 15 0 -8 -6 -8 -20 0 -11 6 -26 8 -33 5
-6 -4 -4 0 7 9 18 14 17 15 -8 22 -15 3 -30 4 -33 0 -4 -3 -15 1 -25 11 -10 9
-18 11 -18 6 0 -19 26 -32 51 -26 21 6 22 4 11 -9 -13 -16 -52 -14 -52 3 0 5
-7 6 -15 3 -8 -4 -13 -9 -10 -13 2 -4 -2 -8 -9 -8 -7 0 -13 6 -13 13 0 7 3 13
6 12 21 -2 30 4 25 17 -4 8 -14 15 -23 16 -12 0 -11 2 4 8 12 5 26 4 34 -2 7
-6 25 -13 38 -15z m-300 7 c-18 -10 -18 -12 -1 -30 18 -20 40 -27 29 -9 -3 6
1 7 10 4 9 -4 13 -9 10 -12 -9 -9 -64 -9 -59 0 3 5 0 16 -7 24 -10 13 -10 17
2 25 8 5 19 9 24 9 6 -1 2 -5 -8 -11z m33 -9 c-8 -5 -19 -10 -25 -10 -5 0 -3
5 5 10 8 5 20 10 25 10 6 0 3 -5 -5 -10z m-362 -52 c-16 -9 -50 -10 -72 -2
-13 5 -9 10 16 23 29 15 35 15 51 2 13 -11 15 -16 5 -23z m239 19 c0 -6 -12
-13 -26 -14 -14 0 -37 -4 -51 -8 -18 -6 -22 -5 -15 3 6 6 28 16 50 21 22 5 40
9 41 10 0 1 1 -5 1 -12z m-422 -7 c3 -5 -2 -11 -12 -12 -10 0 -23 -2 -30 -2
-7 -1 -18 -7 -25 -14 -6 -6 -18 -12 -24 -12 -7 0 -16 -9 -19 -20 -3 -11 -13
-20 -21 -20 -8 0 -12 5 -9 10 3 6 -1 10 -10 10 -10 0 -13 -5 -9 -12 5 -7 3 -8
-5 -4 -7 5 -10 14 -7 22 10 25 -2 15 -23 -22 -19 -32 -24 -35 -54 -29 -17 4
-38 12 -44 17 -7 6 -13 8 -13 4 0 -4 -13 0 -30 9 -32 17 -64 20 -56 6 3 -5 -1
-12 -10 -15 -8 -3 -12 -2 -9 4 7 11 -169 6 -196 -5 -10 -3 -20 -1 -24 6 -5 7
-3 10 6 7 8 -3 22 -1 33 4 10 6 41 10 69 10 28 -1 58 3 66 8 28 15 115 24 107
11 -9 -13 3 -14 24 -1 9 5 19 5 26 0 15 -14 73 -7 111 12 21 10 46 14 71 11
27 -4 42 -1 51 11 15 18 56 22 66 6z m1860 -19 c36 -33 62 -42 89 -31 17 6 26
6 26 0 0 -10 -15 -14 -34 -11 -5 1 -3 -5 4 -14 14 -17 34 -15 36 3 1 7 2 17 3
23 0 6 9 8 19 5 49 -14 102 -15 147 -1 36 10 52 11 60 3 7 -8 5 -9 -7 -5 -25
9 -22 0 3 -14 12 -6 24 -7 28 -2 3 5 23 14 43 20 29 8 35 8 32 -2 -3 -7 -11
-12 -17 -12 -31 1 -48 -4 -43 -12 4 -5 -5 -8 -19 -6 -14 1 -28 -2 -31 -6 -3
-5 -14 -9 -25 -9 -17 0 -18 3 -9 20 7 12 7 20 1 20 -5 0 -13 -9 -16 -20 -4
-11 -11 -17 -16 -14 -6 3 -19 -3 -30 -15 -11 -12 -25 -19 -30 -15 -6 3 -3 12
8 20 22 16 14 18 -24 3 -15 -6 -47 -11 -70 -10 -24 0 -43 -4 -43 -10 0 -12
-145 -6 -230 9 -56 10 -150 50 -150 63 0 4 -15 11 -32 15 -33 7 -33 7 -9 16
14 5 32 6 40 3 9 -4 41 -8 72 -11 44 -3 60 0 70 12 18 22 125 11 154 -15z
m662 23 c-3 -3 -12 -4 -19 -1 -8 3 -5 6 6 6 11 1 17 -2 13 -5z m-2290 -20 c-3
-3 -12 -4 -19 -1 -8 3 -5 6 6 6 11 1 17 -2 13 -5z m1071 -18 c-10 -7 -14 -17
-10 -21 4 -4 -3 -2 -15 4 -15 8 -23 8 -23 1 0 -15 -19 -12 -36 4 -12 13 -10
15 18 19 18 2 44 4 58 5 23 1 23 0 8 -12z m1107 4 c3 -6 -1 -7 -9 -4 -18 7
-21 14 -7 14 6 0 13 -4 16 -10z m-1485 -10 c0 -5 -4 -10 -10 -10 -5 0 -10 5
-10 10 0 6 5 10 10 10 6 0 10 -4 10 -10z m1441 -14 c-15 -18 -61 -27 -54 -11
2 7 13 11 24 8 12 -3 21 1 25 11 4 9 9 15 12 12 3 -3 0 -12 -7 -20z m-1150
-13 c13 -16 12 -17 -3 -4 -10 7 -18 15 -18 17 0 8 8 3 21 -13z m-2206 -7 c15
6 38 -21 32 -38 -4 -8 -8 -4 -13 10 -4 13 -12 21 -20 18 -7 -3 -18 3 -25 12
-11 14 -11 15 0 5 7 -6 19 -9 26 -7z m-226 -6 c-6 -5 -18 -6 -26 -3 -19 8 -16
11 13 11 17 0 22 -3 13 -8z m332 -8 c-7 -2 -18 1 -23 6 -8 8 -4 9 13 5 13 -4
18 -8 10 -11z m3169 14 c0 -3 -4 -8 -10 -11 -5 -3 -10 -1 -10 4 0 6 5 11 10
11 6 0 10 -2 10 -4z m-3100 -26 c0 -5 -4 -10 -10 -10 -5 0 -10 5 -10 10 0 6 5
10 10 10 6 0 10 -4 10 -10z m-467 -32 c-2 -5 -10 -8 -18 -8 -8 0 -16 3 -18 8
-3 4 5 7 18 7 13 0 21 -3 18 -7z m3267 2 c0 -5 -2 -10 -4 -10 -3 0 -8 5 -11
10 -3 6 -1 10 4 10 6 0 11 -4 11 -10z m-3307 -12 c30 -14 35 -25 12 -25 -8 0
-16 6 -19 13 -3 8 -12 11 -21 8 -8 -3 -15 -1 -15 5 0 14 10 14 43 -1z m187
-14 c0 -8 -4 -12 -10 -9 -5 3 -10 10 -10 16 0 5 5 9 10 9 6 0 10 -7 10 -16z
m-344 -1 c-3 -3 -22 -7 -43 -9 -21 -2 -30 0 -21 4 21 8 71 12 64 5z m69 -4
c-5 -6 -55 0 -55 7 0 3 13 3 29 2 16 -1 28 -5 26 -9z m-2065 -29 c0 -5 -8 -10
-17 -10 -15 0 -16 2 -3 10 19 12 20 12 20 0z m69 -14 c-2 -2 -20 -6 -39 -10
-25 -4 -31 -3 -20 4 14 9 69 15 59 6z m41 -6 c-20 -13 -33 -13 -25 0 3 6 14
10 23 10 15 0 15 -2 2 -10z m60 -10 c8 -5 11 -10 5 -10 -5 0 -17 5 -25 10 -8
5 -10 10 -5 10 6 0 17 -5 25 -10z m1053 -7 c-7 -2 -21 -2 -30 0 -10 3 -4 5 12
5 17 0 24 -2 18 -5z m392 -13 c3 -6 -1 -7 -9 -4 -18 7 -21 14 -7 14 6 0 13 -4
16 -10z m300 0 c3 -5 1 -10 -4 -10 -6 0 -11 5 -11 10 0 6 2 10 4 10 3 0 8 -4
11 -10z m5970 -20 c-3 -5 -14 -10 -23 -9 -14 0 -13 2 3 9 27 11 27 11 20 0z
m-6252 -27 c-7 -2 -19 -2 -25 0 -7 3 -2 5 12 5 14 0 19 -2 13 -5z m4037 -103
c0 -5 -4 -10 -10 -10 -5 0 -10 5 -10 10 0 6 5 10 10 10 6 0 10 -4 10 -10z
m-380 -10 c0 -5 -5 -10 -11 -10 -5 0 -7 5 -4 10 3 6 8 10 11 10 2 0 4 -4 4
-10z m50 -9 c0 -4 20 -6 45 -5 24 1 44 -1 44 -4 -4 -27 3 -34 28 -27 15 3 31
12 36 18 5 8 7 5 5 -8 -2 -11 -13 -30 -26 -41 -18 -17 -20 -24 -10 -30 26 -17
163 -74 176 -74 8 0 12 -3 10 -7 -2 -5 -12 -25 -22 -47 -19 -43 -32 -44 -16 0
10 25 8 30 -12 46 -13 10 -39 23 -58 29 -19 6 -41 16 -48 22 -7 5 -22 10 -34
11 -30 1 -33 21 -6 46 l23 21 -27 -6 c-22 -6 -28 -4 -28 9 0 12 -7 14 -29 10
-21 -5 -34 -1 -50 15 -12 12 -25 21 -31 21 -5 0 -10 4 -10 9 0 5 9 7 20 4 11
-3 20 -9 20 -12z m293 2 c-7 -2 -21 -2 -30 0 -10 3 -4 5 12 5 17 0 24 -2 18
-5z m-153 -19 c0 -2 -9 -4 -21 -4 -11 0 -18 4 -14 10 5 8 35 3 35 -6z m76 4
c4 -7 4 -10 -1 -6 -4 4 -14 3 -22 -3 -8 -8 -13 -8 -13 -1 0 6 6 13 13 15 6 3
13 6 14 6 1 1 5 -5 9 -11z m-482 -24 c3 -8 2 -12 -4 -9 -6 3 -10 10 -10 16 0
14 7 11 14 -7z m-347 -20 c-3 -3 -12 -4 -19 -1 -8 3 -5 6 6 6 11 1 17 -2 13
-5z m283 -49 c11 -13 8 -15 -14 -15 -23 0 -25 2 -14 15 16 18 13 18 28 0z
m-85 -15 c-27 -12 -43 -12 -25 0 8 5 22 9 30 9 10 0 8 -3 -5 -9z m-80 -17
c-41 -21 -42 -23 -25 -34 11 -8 7 -9 -15 -4 -16 3 -38 6 -47 6 -10 0 -15 6
-11 15 6 16 29 19 38 3 5 -7 12 -6 23 4 18 15 40 25 57 26 6 0 -3 -7 -20 -16z
m190 6 c-8 -11 27 -49 45 -49 6 0 8 -4 5 -10 -3 -5 6 -12 20 -16 27 -7 34 -24
10 -24 -8 0 -15 4 -15 9 0 5 -15 15 -34 22 -19 7 -32 18 -29 24 2 7 -2 15 -10
18 -18 7 -67 -3 -67 -14 0 -5 -7 -6 -15 -3 -8 4 -15 1 -15 -5 0 -6 5 -11 12
-11 6 0 8 -3 5 -6 -4 -4 -13 -2 -20 4 -8 7 -16 11 -18 9 -2 -1 2 4 11 11 8 7
30 17 50 22 19 6 42 14 50 20 19 13 23 12 15 -1z m-331 -14 c-4 -8 -8 -15 -10
-15 -2 0 -4 7 -4 15 0 8 4 15 10 15 5 0 7 -7 4 -15z m-566 -4 c6 -1 12 -8 12
-16 0 -12 -9 -15 -35 -13 -19 1 -35 7 -35 13 0 17 9 23 28 20 9 -2 23 -4 30
-4z m432 -1 c0 -5 -4 -10 -10 -10 -5 0 -10 5 -10 10 0 6 5 10 10 10 6 0 10 -4
10 -10z m65 -20 c3 -5 -4 -6 -16 -3 -15 4 -22 0 -26 -15 -3 -13 -12 -20 -24
-19 -26 2 -20 32 6 32 11 0 19 5 18 11 -2 13 34 7 42 -6z m245 6 c0 -14 -29
-31 -38 -22 -2 3 -2 12 1 21 8 19 37 20 37 1z m-1443 -12 c5 -16 -40 -26 -49
-11 -4 7 -8 16 -8 20 0 12 53 4 57 -9z m633 7 c0 -5 -15 -13 -32 -16 -18 -4
-37 -11 -43 -15 -18 -13 -58 -19 -89 -13 -28 6 -26 8 29 20 67 15 129 30 133
32 1 0 2 -3 2 -8z m678 -16 c15 -11 32 -14 57 -9 23 4 35 2 35 -5 0 -11 -12
-13 -92 -16 -38 -1 -48 2 -48 15 0 32 16 37 48 15z m1609 9 c-3 -3 -12 -4 -19
-1 -8 3 -5 6 6 6 11 1 17 -2 13 -5z m449 -9 c-11 -8 -25 -15 -30 -15 -6 1 0 7
14 15 32 19 40 18 16 0z m-4376 -4 c0 -13 -41 -41 -60 -41 -8 1 0 9 18 18 18
10 30 21 26 25 -4 4 -2 7 4 7 7 0 12 -4 12 -9z m812 -10 c14 -5 35 -7 47 -4
12 3 21 1 21 -5 0 -11 -66 -7 -103 7 -32 12 -99 2 -178 -28 -30 -12 -68 -21
-86 -21 -17 0 -34 -4 -38 -10 -3 -5 -12 -7 -20 -4 -7 3 -25 -2 -40 -12 -16
-10 -29 -14 -33 -8 -8 11 -27 12 -38 2 -4 -5 3 -8 15 -8 12 0 20 -4 16 -9 -7
-13 -53 -7 -67 7 -7 7 -8 12 -2 12 6 0 19 7 30 16 10 8 12 12 4 8 -8 -4 -12
-4 -8 1 4 4 3 14 -2 21 -8 8 -6 17 5 28 23 23 38 21 25 -3 -14 -26 -14 -26 14
-45 23 -14 26 -14 41 1 10 10 38 17 71 19 30 2 80 12 112 23 31 10 66 21 77
24 28 7 106 0 137 -12z m133 0 c-6 -10 -55 -21 -55 -12 0 9 43 28 53 23 4 -2
5 -7 2 -11z m1117 7 c-17 -17 -15 -28 4 -28 8 0 12 4 9 10 -3 6 1 7 9 4 9 -3
16 -11 16 -16 0 -6 12 -8 28 -4 26 6 26 6 8 -9 -23 -17 -33 -19 -41 -6 -3 5
-17 8 -31 5 -14 -3 -32 0 -39 6 -10 8 -14 5 -19 -14 -4 -18 -11 -23 -22 -19
-15 5 -15 7 0 15 23 13 20 27 -6 22 -13 -2 -7 2 12 10 19 7 38 12 41 10 4 -2
12 3 19 11 7 8 15 15 18 15 3 0 1 -5 -6 -12z m-3205 -4 c-3 -3 -12 -4 -19 -1
-8 3 -5 6 6 6 11 1 17 -2 13 -5z m948 -19 c-32 -26 -45 -31 -45 -16 0 5 -8 11
-17 14 -16 4 -16 5 1 12 13 6 21 4 24 -3 3 -9 10 -8 25 3 35 25 44 16 12 -10z
m485 16 c0 -5 -9 -13 -21 -16 -22 -7 -22 -42 0 -37 7 1 10 -2 6 -8 -4 -6 -13
-5 -25 3 -25 15 -25 18 0 45 22 23 40 29 40 13z m836 -28 c-6 -6 -96 21 -96
28 0 4 22 0 50 -9 27 -9 48 -17 46 -19z m1129 27 c4 -6 -10 -10 -34 -10 -22 0
-43 5 -46 10 -4 6 10 10 34 10 22 0 43 -4 46 -10z m1115 0 c-38 -26 -47 -29
-47 -15 0 7 6 11 13 8 6 -2 15 0 19 6 3 6 12 11 18 11 7 0 6 -4 -3 -10z m328
-4 c-7 -8 -15 -12 -17 -11 -5 6 10 25 20 25 5 0 4 -6 -3 -14z m122 -1 c-14 -8
-32 -14 -40 -14 -8 0 -1 6 15 14 40 18 57 18 25 0z m-3614 -10 c14 -13 14 -16
-1 -21 -14 -6 -15 -15 -10 -55 7 -49 7 -49 -22 -48 -19 1 -22 3 -9 6 15 4 17
12 13 46 -3 23 -9 52 -13 65 -5 17 -2 22 11 22 9 0 23 -7 31 -15z m1064 1
c-19 -6 -34 -17 -32 -24 2 -14 -43 -15 -73 -2 -18 8 -18 9 -2 9 10 1 15 6 12
11 -3 6 -1 10 4 10 6 0 11 -4 11 -9 0 -11 32 -7 57 8 10 6 27 10 38 10 12 0 7
-5 -15 -13z m585 -2 c9 -9 13 -19 10 -22 -3 -4 -10 0 -15 8 -10 17 -40 22 -40
7 0 -5 -3 -8 -6 -4 -9 9 5 27 21 27 7 0 21 -7 30 -16z m85 1 c0 -17 -2 -18
-24 -9 -23 9 -20 24 4 24 11 0 20 -7 20 -15z m525 -5 c22 -14 25 -20 14 -25
-17 -6 -24 -55 -8 -55 5 0 8 -4 4 -9 -3 -5 2 -17 12 -26 16 -16 15 -17 -2 -14
-10 2 -18 9 -17 14 1 10 -25 29 -43 30 -19 2 -27 -8 -14 -16 10 -6 10 -9 2 -9
-19 0 -22 14 -7 35 10 13 14 15 14 4 1 -9 5 -7 13 6 6 11 12 22 12 25 0 3 4
12 10 20 8 13 7 13 -10 0 -17 -14 -18 -13 -13 7 3 12 1 24 -6 27 -6 2 -6 5 -1
5 6 1 23 -8 40 -19z m-2395 -5 c11 -13 10 -14 -4 -9 -9 3 -16 10 -16 15 0 13
6 11 20 -6z m80 1 c0 -8 -5 -18 -12 -22 -7 -5 -8 -3 -3 6 4 7 2 16 -6 21 -11
7 -10 9 4 9 9 0 17 -6 17 -14z m870 4 c0 -5 -5 -10 -11 -10 -5 0 -7 5 -4 10 3
6 8 10 11 10 2 0 4 -4 4 -10z m365 -6 c-53 -20 -135 -28 -135 -14 0 6 4 9 9 5
5 -3 13 0 17 6 3 6 19 9 34 6 15 -4 40 -2 56 3 48 14 62 10 19 -6z m310 6 c3
-5 -1 -10 -10 -10 -9 0 -13 5 -10 10 3 6 8 10 10 10 2 0 7 -4 10 -10z m885 0
c0 -5 -2 -10 -4 -10 -3 0 -8 5 -11 10 -3 6 -1 10 4 10 6 0 11 -4 11 -10z
m-3595 -21 c-10 -15 -25 -10 -19 6 4 8 10 12 15 9 5 -3 7 -10 4 -15z m2672 4
c2 -6 -1 -14 -6 -18 -6 -3 -8 0 -5 8 4 11 -2 14 -28 11 -20 -2 -28 0 -20 4 17
12 55 8 59 -5z m1003 -9 c0 -8 7 -14 15 -14 8 0 15 5 15 10 0 13 41 29 58 23
6 -3 12 -9 12 -15 0 -5 -5 -6 -10 -3 -13 8 -50 -4 -50 -16 0 -6 10 -7 23 -3
12 3 19 3 15 -1 -4 -5 0 -14 10 -22 16 -14 16 -14 -3 -8 -11 4 -27 10 -35 13
-12 5 -13 3 -3 -9 9 -12 6 -14 -22 -15 -28 -1 -32 2 -27 19 4 15 2 18 -9 12
-8 -5 -11 -5 -7 0 4 4 3 15 -2 25 -10 18 -3 33 11 24 5 -3 9 -12 9 -20z m269
16 c-22 -12 -152 -16 -156 -5 -2 6 31 11 84 11 48 1 80 -2 72 -6z m189 -5 c34
-8 42 -22 17 -32 -9 -3 -22 2 -30 13 -8 11 -15 15 -15 10 0 -5 -6 -4 -12 1 -7
5 -31 11 -53 12 -21 1 -42 4 -45 7 -6 7 90 -1 138 -11z m182 5 c0 -5 -2 -10
-4 -10 -3 0 -8 5 -11 10 -3 6 -1 10 4 10 6 0 11 -4 11 -10z m-3735 -8 c12 -9
18 -32 8 -32 -13 0 -28 14 -30 28 -3 13 7 16 22 4z m3065 -18 c0 -4 -13 -4
-30 -2 -27 4 -30 2 -31 -21 0 -26 0 -26 -9 -3 -5 12 -18 26 -27 30 -13 5 -7 8
22 12 37 6 75 -3 75 -16z m638 17 c10 -6 10 -11 -3 -21 -14 -12 -18 -11 -26 1
-6 10 -11 11 -16 3 -10 -15 -74 -42 -91 -38 -7 1 -8 0 -2 -3 5 -2 10 -8 10
-13 0 -5 -14 -1 -31 7 -23 12 -28 18 -18 24 8 5 15 4 17 -1 4 -11 82 12 113
34 27 18 29 19 47 7z m-4903 -12 c11 -16 1 -19 -13 -3 -7 8 -8 14 -3 14 5 0
13 -5 16 -11z m1295 1 c0 -5 -7 -10 -16 -10 -9 0 -12 -5 -8 -12 5 -8 2 -9 -11
-4 -11 4 -22 2 -27 -6 -6 -10 -8 -10 -8 -1 0 7 12 19 28 27 32 18 42 19 42 6z
m81 -13 c-10 -9 -11 -8 -5 6 3 10 9 15 12 12 3 -3 0 -11 -7 -18z m129 16 c-8
-4 -21 -12 -28 -20 -7 -7 -23 -13 -35 -13 -12 0 -35 -8 -52 -18 -34 -21 -65
-33 -65 -27 0 9 100 55 118 55 11 0 25 7 32 15 7 8 20 15 29 14 13 0 13 -2 1
-6z m1073 -13 c-3 -12 -8 -19 -11 -16 -5 6 5 36 12 36 2 0 2 -9 -1 -20z m542
10 c-3 -5 -11 -10 -16 -10 -6 0 -7 5 -4 10 3 6 11 10 16 10 6 0 7 -4 4 -10z
m358 -6 c4 -1 12 -2 18 -3 5 0 8 -5 4 -11 -7 -11 -55 8 -55 22 0 5 6 6 13 1 6
-4 15 -8 20 -9z m437 6 c0 -5 -2 -10 -4 -10 -3 0 -8 5 -11 10 -3 6 -1 10 4 10
6 0 11 -4 11 -10z m-4130 -10 c0 -5 -4 -10 -10 -10 -5 0 -10 5 -10 10 0 6 5
10 10 10 6 0 10 -4 10 -10z m2718 -9 c-7 -11 -16 -17 -20 -14 -10 5 10 33 23
33 5 0 4 -9 -3 -19z m1306 -7 c3 -8 1 -14 -4 -14 -6 0 -10 5 -10 10 0 6 -9 10
-20 10 -11 0 -20 4 -20 9 0 13 48 0 54 -15z m1786 22 c0 -2 -7 -7 -16 -10 -8
-3 -12 -2 -9 4 6 10 25 14 25 6z m-5360 -20 c-1 -5 4 -13 12 -17 9 -6 9 -9 1
-9 -7 0 -17 10 -24 21 -8 16 -8 20 1 17 6 -2 11 -7 10 -12z m1717 8 c-3 -3
-12 -4 -19 -1 -8 3 -5 6 6 6 11 1 17 -2 13 -5z m683 2 c0 -3 -4 -8 -10 -11 -5
-3 -10 -1 -10 4 0 6 5 11 10 11 6 0 10 -2 10 -4z m620 0 c0 -3 -4 -8 -10 -11
-5 -3 -10 -1 -10 4 0 6 5 11 10 11 6 0 10 -2 10 -4z m190 -13 c0 -2 -8 -3 -17
-1 -10 1 -25 -2 -33 -7 -13 -7 -13 -6 -2 7 11 14 52 15 52 1z m1080 7 c-8 -5
-22 -9 -30 -9 -10 0 -8 3 5 9 27 12 43 12 25 0z m133 -11 c10 -10 24 -19 32
-19 8 0 15 -5 15 -12 0 -6 3 -8 7 -5 3 4 12 -2 20 -13 14 -20 40 -29 28 -10
-3 6 -4 10 -1 10 3 0 10 -10 17 -21 7 -14 7 -19 0 -15 -13 8 -54 -31 -46 -44
12 -20 -4 -9 -38 25 -19 19 -43 35 -53 35 -14 1 -12 5 9 16 16 9 26 18 23 21
-3 4 -17 1 -30 -7 -20 -10 -28 -10 -46 3 -18 13 -19 15 -4 21 9 3 23 1 30 -5
15 -12 38 -3 28 12 -3 5 -10 6 -16 3 -7 -4 -8 -2 -4 4 5 8 -5 11 -29 10 -19
-1 -38 1 -41 4 -3 3 14 6 38 6 30 1 48 -5 61 -19z m-4553 -4 c-7 -8 -17 -15
-22 -15 -11 0 14 29 26 30 5 0 3 -7 -4 -15z m255 5 c-3 -5 -10 -10 -16 -10 -5
0 -9 5 -9 10 0 6 7 10 16 10 8 0 12 -4 9 -10z m3580 0 c3 -5 -1 -10 -10 -10
-9 0 -13 5 -10 10 3 6 8 10 10 10 2 0 7 -4 10 -10z m521 -27 c-3 -3 -18 -2
-33 3 l-28 8 28 4 c15 2 28 9 28 15 1 7 3 4 6 -6 3 -10 2 -21 -1 -24z m-1231
9 c-3 -3 -11 0 -18 7 -9 10 -8 11 6 5 10 -3 15 -9 12 -12z m436 -12 c5 0 9 5
9 10 0 6 7 10 16 10 23 0 13 -19 -21 -38 -17 -9 -33 -21 -36 -26 -4 -4 -9 -4
-13 2 -3 5 1 12 9 16 8 3 15 10 15 15 0 6 -8 8 -17 4 -16 -6 -15 -3 2 16 17
19 21 20 23 7 2 -9 8 -16 13 -16z m199 5 c-10 -12 -10 -15 1 -16 8 0 5 -4 -6
-8 -28 -12 -30 -6 -8 22 10 14 20 23 22 21 2 -2 -2 -10 -9 -19z m1413 5 c-3
-11 -8 -20 -12 -20 -4 0 -7 9 -7 20 0 11 6 20 12 20 7 0 10 -8 7 -20z m-4898
-9 c-3 -6 -11 -11 -16 -11 -5 0 -4 6 3 14 14 16 24 13 13 -3z m740 9 c3 -6 -1
-7 -9 -4 -18 7 -21 14 -7 14 6 0 13 -4 16 -10z m76 -13 c-10 -9 -11 -8 -5 6 3
10 9 15 12 12 3 -3 0 -11 -7 -18z m2239 6 c0 -3 -7 -2 -16 1 -11 4 -15 2 -11
-8 3 -8 -1 -17 -9 -20 -17 -6 -18 -1 -4 24 9 17 40 19 40 3z m-2819 -29 c-22
-20 -38 -41 -34 -47 3 -6 1 -7 -5 -3 -15 9 -4 34 19 47 11 5 16 15 13 21 -4 6
-3 8 4 4 6 -3 13 -2 17 4 3 5 11 10 17 10 6 0 -8 -16 -31 -36z m399 23 c-27
-15 -36 -14 -25 2 3 6 16 11 28 11 21 0 21 -1 -3 -13z m694 7 c9 -3 16 -13 16
-21 0 -8 -4 -12 -9 -8 -5 3 -12 1 -16 -5 -4 -6 -10 -8 -15 -5 -4 3 -21 -2 -36
-10 -16 -8 -38 -15 -49 -14 -12 0 -3 7 23 17 23 9 42 22 42 28 0 7 6 15 13 17
6 3 13 6 14 6 1 1 8 -2 17 -5z m1816 2 c0 -11 -19 -15 -25 -6 -3 5 1 10 9 10
9 0 16 -2 16 -4z m390 -11 c10 -12 10 -15 -4 -15 -9 0 -16 7 -16 15 0 8 2 15
4 15 2 0 9 -7 16 -15z m-3320 -5 c0 -5 -8 -10 -17 -10 -15 0 -16 2 -3 10 19
12 20 12 20 0z m230 -5 c-7 -8 -16 -15 -21 -15 -5 0 -19 -10 -30 -21 -17 -17
-19 -23 -8 -30 8 -5 10 -9 4 -9 -31 0 -34 17 -8 42 25 22 61 47 72 48 2 0 -2
-7 -9 -15z m150 5 c0 -5 -5 -10 -11 -10 -5 0 -7 5 -4 10 3 6 8 10 11 10 2 0 4
-4 4 -10z m185 0 c-3 -5 -16 -15 -28 -21 -19 -9 -19 -8 3 10 28 23 34 26 25
11z m603 -8 c6 -18 -15 -14 -22 4 -4 10 -1 14 6 12 6 -2 14 -10 16 -16z m3112
8 c-8 -5 -22 -9 -30 -9 -10 0 -8 3 5 9 27 12 43 12 25 0z m305 -14 c-22 -13
-47 -31 -57 -39 -9 -8 -20 -12 -24 -9 -4 4 -3 -2 1 -13 5 -11 9 -38 11 -60 1
-22 0 -29 -2 -15 -11 58 -15 70 -25 70 -6 0 -7 -4 -4 -10 3 -6 -1 -7 -10 -4
-25 10 -13 26 46 57 30 16 58 33 64 38 5 5 16 9 25 9 8 0 -3 -11 -25 -24z
m-4835 4 c0 -5 -2 -10 -4 -10 -3 0 -8 5 -11 10 -3 6 -1 10 4 10 6 0 11 -4 11
-10z m3825 -8 c-3 -3 -11 0 -18 7 -9 10 -8 11 6 5 10 -3 15 -9 12 -12z m-2912
1 c-7 -2 -19 -2 -25 0 -7 3 -2 5 12 5 14 0 19 -2 13 -5z m54 -25 c-3 -7 -5 -2
-5 12 0 14 2 19 5 13 2 -7 2 -19 0 -25z m1336 2 c-8 -17 -19 -27 -25 -24 -5 4
0 16 13 30 29 31 31 30 12 -6z m1154 24 c-3 -3 -12 -4 -19 -1 -8 3 -5 6 6 6
11 1 17 -2 13 -5z m1481 -26 c-19 -58 -29 -74 -46 -75 -9 0 -33 -3 -52 -7 -28
-5 -31 -5 -12 3 12 6 22 15 22 21 0 5 14 10 30 10 20 0 30 5 30 15 0 13 -4 14
-22 4 -20 -11 -22 -10 -10 3 10 13 10 17 0 21 -7 3 -3 6 8 6 12 1 27 8 34 16
21 25 29 17 18 -17z m-5617 -7 c-12 -12 -21 -18 -21 -14 0 10 33 44 37 39 3
-2 -5 -14 -16 -25z m3696 23 c-3 -3 -12 -4 -19 -1 -8 3 -5 6 6 6 11 1 17 -2
13 -5z m633 2 c0 -2 -7 -7 -16 -10 -8 -3 -12 -2 -9 4 6 10 25 14 25 6z m841
-11 c-1 -5 -9 -10 -20 -11 -13 -1 -17 4 -14 13 6 15 34 14 34 -2z m-4695 -14
l24 -19 -25 -26 c-13 -14 -30 -26 -37 -26 -7 0 -2 7 10 16 l22 15 -20 30 c-24
33 -10 39 26 10z m44 11 c0 -5 -7 -9 -15 -9 -8 0 -15 4 -15 9 0 4 7 8 15 8 8
0 15 -4 15 -8z m1324 -1 c34 -2 7 -15 -32 -16 l-37 0 1 -47 c0 -26 -3 -45 -7
-42 -4 2 -11 -1 -15 -7 -3 -6 0 -15 7 -20 9 -6 10 -9 2 -9 -6 0 -15 5 -18 10
-4 6 -11 8 -16 4 -28 -17 -68 -22 -73 -9 -3 9 0 12 9 9 15 -6 53 11 76 35 10
11 14 29 11 53 -4 38 6 47 53 42 11 -1 29 -2 39 -3z m511 -1 c3 -5 -1 -10 -9
-10 -9 0 -16 5 -16 10 0 6 4 10 9 10 6 0 13 -4 16 -10z m545 -20 c-30 -8 -32
-7 -24 13 5 14 10 15 27 5 22 -12 22 -12 -3 -18z m-1530 15 c0 -2 -10 -9 -22
-15 -22 -11 -22 -10 -4 4 21 17 26 19 26 11z m520 -5 c0 -5 -2 -10 -4 -10 -3
0 -8 5 -11 10 -3 6 -1 10 4 10 6 0 11 -4 11 -10z m550 -16 c0 -2 -9 0 -20 6
-11 6 -20 13 -20 16 0 2 9 0 20 -6 11 -6 20 -13 20 -16z m2227 0 c19 -14 32
-28 29 -31 -2 -3 -15 4 -27 16 -13 12 -31 21 -42 21 -17 0 -18 -2 -6 -17 12
-14 12 -15 -1 -11 -8 3 -23 -1 -32 -10 -30 -25 -21 6 8 33 15 14 29 25 32 25
3 0 20 -12 39 -26z m300 -6 c-3 -7 -5 -2 -5 12 0 14 2 19 5 13 2 -7 2 -19 0
-25z m-1067 12 c0 -5 -8 -10 -17 -10 -15 0 -16 2 -3 10 19 12 20 12 20 0z
m480 3 c-8 -3 -21 -13 -29 -22 -13 -15 -13 -15 -8 2 8 21 -2 22 -39 2 -28 -14
-28 -16 -1 -19 6 0 13 -11 15 -23 3 -18 0 -22 -14 -16 -12 4 -15 3 -10 -5 4
-8 2 -10 -7 -6 -8 3 -18 1 -22 -5 -3 -6 -11 -11 -17 -11 -7 0 -2 9 10 20 25
24 29 50 7 50 -8 0 -12 -6 -9 -13 3 -8 -2 -14 -10 -14 -8 0 -12 6 -9 15 8 20
82 51 123 51 19 -1 28 -3 20 -6z m-3365 -23 c25 -11 -1 -11 -35 0 -20 6 -21 8
-5 8 11 0 29 -3 40 -8z m418 -10 c-7 -27 -23 -36 -34 -19 -7 12 -10 12 -18 1
-6 -11 -9 -9 -13 6 -4 15 -1 18 17 14 13 -2 26 1 29 7 12 19 24 12 19 -9z
m3887 5 c-7 -8 -9 -15 -4 -15 5 -1 -10 -9 -32 -20 -38 -18 -66 -50 -44 -50 20
0 9 -19 -12 -22 -13 -2 -22 -9 -20 -16 3 -17 -15 -15 -21 2 -4 9 3 16 17 20
13 3 22 14 23 26 2 26 -17 26 -24 0 -5 -19 -23 -29 -23 -12 0 18 27 41 65 52
22 7 46 21 53 32 7 10 18 18 24 18 7 0 6 -6 -2 -15z m-877 -2 c-7 -2 -15 -3
-17 -1 -3 2 -12 -6 -21 -17 -10 -13 -14 -15 -13 -5 4 20 19 30 43 29 11 0 14
-3 8 -6z m83 -6 c4 -3 -3 -4 -16 -2 -14 3 -45 -10 -86 -36 -35 -23 -70 -39
-76 -36 -7 2 3 12 22 21 19 9 53 27 75 41 38 23 66 27 81 12z m-3268 -4 c-10
-2 -28 -2 -40 0 -13 2 -5 4 17 4 22 1 32 -1 23 -4z m348 -8 c-11 -8 -23 -15
-28 -15 -4 0 -5 -6 -2 -13 4 -11 -5 -12 -51 -4 -30 6 -55 15 -55 20 0 5 7 7
15 3 8 -3 15 0 15 7 0 8 3 9 8 1 7 -10 22 -11 64 -2 10 2 21 7 24 11 4 4 12 7
18 7 6 0 2 -7 -8 -15z m2268 0 c-4 -8 -10 -15 -15 -15 -4 0 -6 7 -3 15 4 8 10
15 15 15 4 0 6 -7 3 -15z m1086 -10 c0 -17 -4 -23 -15 -19 -11 5 -12 10 -2 25
15 25 17 24 17 -6z m150 15 c8 -5 12 -11 10 -14 -3 -2 -14 2 -24 10 -22 15
-10 19 14 4z m-3810 -10 c0 -5 -8 -10 -17 -10 -15 0 -16 2 -3 10 19 12 20 12
20 0z m2607 -5 c0 -8 -6 -15 -14 -15 -14 0 -17 12 -6 23 11 11 20 8 20 -8z
m1013 0 c-7 -9 -15 -13 -19 -10 -3 3 1 10 9 15 21 14 24 12 10 -5z m-1276 -19
c-3 -9 -12 -16 -20 -16 -11 0 -10 4 4 18 20 22 25 21 16 -2z m-3409 4 c-3 -5
-12 -10 -18 -10 -7 0 -6 4 3 10 19 12 23 12 15 0z m205 -11 c0 -5 -6 -9 -13
-9 -8 0 -22 -18 -32 -40 -19 -42 -41 -67 -52 -57 -3 4 9 23 26 43 19 21 30 42
27 51 -4 8 -4 18 -1 23 6 10 45 1 45 -11z m2449 18 c-2 -1 -14 -11 -26 -21
-13 -11 -23 -16 -23 -13 0 10 31 37 42 37 6 0 9 -1 7 -3z m1341 -11 c0 -3 -4
-8 -10 -11 -5 -3 -10 -1 -10 4 0 6 5 11 10 11 6 0 10 -2 10 -4z m270 0 c0 -3
-4 -8 -10 -11 -5 -3 -10 -1 -10 4 0 6 5 11 10 11 6 0 10 -2 10 -4z m1092 -25
c3 -24 -2 -27 -52 -35 -9 -1 -21 -5 -27 -9 -25 -15 -21 12 3 28 15 9 23 12 19
5 -5 -8 0 -11 16 -8 16 2 25 11 27 26 4 28 9 26 14 -7z m-3966 4 c10 -8 14
-15 7 -15 -19 0 -43 11 -43 21 0 13 14 11 36 -6z m2904 5 c0 -5 -4 -10 -10
-10 -5 0 -10 5 -10 10 0 6 5 10 10 10 6 0 10 -4 10 -10z m595 -7 c-5 -15 -4
-16 6 -5 15 14 43 17 34 3 -3 -5 -1 -12 5 -16 12 -7 4 -25 -11 -25 -5 0 -9 8
-9 18 -1 15 -2 15 -12 -3 -11 -19 -11 -19 -19 0 -11 29 -10 45 2 45 6 0 8 -7
4 -17z m158 -13 c-7 -28 -13 -25 -13 6 0 14 4 23 9 20 5 -3 7 -15 4 -26z m282
20 c3 -5 2 -10 -4 -10 -5 0 -13 5 -16 10 -3 6 -2 10 4 10 5 0 13 -4 16 -10z
m-608 -22 c0 -13 3 -41 6 -63 4 -24 4 -35 -2 -27 -4 8 -11 13 -15 12 -14 -3
-31 8 -23 16 4 5 12 3 16 -4 5 -8 8 -1 8 18 0 16 -4 30 -9 30 -4 0 -3 9 4 20
16 25 16 25 15 -2z m553 12 c0 -5 -5 -10 -11 -10 -5 0 -7 5 -4 10 3 6 8 10 11
10 2 0 4 -4 4 -10z m-1285 -9 c-3 -5 -1 -12 5 -16 5 -3 10 -12 10 -18 0 -7 -6
-4 -14 5 -7 10 -16 15 -19 11 -4 -3 -7 -1 -7 5 0 5 6 13 13 15 18 8 19 8 12
-2z m-700 -21 c3 -6 -1 -7 -9 -4 -18 7 -21 14 -7 14 6 0 13 -4 16 -10z m619
-14 c-10 -8 -21 -12 -23 -10 -3 2 4 11 15 18 10 8 21 12 23 10 3 -2 -4 -11
-15 -18z m1301 12 c-2 -7 -6 -53 -9 -103 -3 -49 -8 -114 -11 -143 -7 -60 11
-78 46 -46 l20 18 -22 8 c-17 7 -19 11 -10 22 9 11 9 15 0 18 -7 2 -9 10 -5
16 8 13 27 16 25 5 -6 -38 2 -48 39 -48 20 0 43 4 50 8 7 5 12 4 12 -2 0 -6
-5 -11 -11 -11 -5 0 -8 -4 -5 -9 3 -4 -6 -6 -19 -3 -20 3 -24 1 -20 -17 3 -18
0 -20 -23 -16 -15 3 -20 2 -12 -2 8 -3 21 -13 30 -22 13 -13 13 -14 -2 -8 -10
3 -18 2 -18 -2 0 -5 -17 -1 -37 9 -21 10 -39 17 -41 15 -4 -4 -10 -69 -22
-224 -5 -74 -12 -137 -15 -139 -7 -8 -6 41 4 158 6 58 12 143 16 190 3 47 8
101 10 120 2 19 7 73 11 120 3 47 8 88 11 93 7 12 13 8 8 -5z m-2537 -23 c-3
-3 -9 2 -12 12 -6 14 -5 15 5 6 7 -7 10 -15 7 -18z m1862 0 c0 -15 -2 -17 -9
-6 -5 7 -15 17 -22 22 -10 6 -7 8 9 6 15 -1 22 -8 22 -22z m-2830 -5 c107 -29
160 -53 147 -67 -5 -4 -12 -2 -16 5 -4 8 -14 14 -22 15 -8 2 -20 6 -27 10 -6
5 -33 10 -60 11 -52 4 -82 14 -82 26 0 5 -12 11 -27 13 -16 2 -12 3 7 2 19 -2
55 -9 80 -15z m854 5 c-4 -8 -11 -15 -16 -15 -6 0 -5 6 2 15 7 8 14 15 16 15
2 0 1 -7 -2 -15z m2796 -20 c0 -19 -4 -35 -9 -35 -4 0 -7 10 -6 23 1 12 3 28
4 35 3 27 11 10 11 -23z m-2400 13 c0 -4 -4 -8 -9 -8 -6 0 -12 4 -15 8 -3 5 1
9 9 9 8 0 15 -4 15 -9z m1946 0 c4 -6 3 -8 -4 -4 -6 3 -13 2 -16 -3 -3 -5 4
-11 16 -14 12 -4 19 -9 16 -12 -11 -12 -47 15 -42 30 7 18 20 19 30 3z m419 2
c-4 -6 0 -23 8 -38 10 -22 11 -30 1 -39 -14 -14 -25 -6 -17 13 3 10 -2 14 -18
14 -36 0 -69 11 -64 20 3 5 22 6 42 3 28 -5 34 -3 28 7 -4 7 -2 16 6 21 18 11
22 11 14 -1z m-6015 -20 c-6 -11 -12 -20 -14 -20 -3 0 -1 23 3 38 1 1 6 2 11
2 7 0 7 -6 0 -20z m3980 10 c0 -5 -5 -10 -11 -10 -5 0 -7 5 -4 10 3 6 8 10 11
10 2 0 4 -4 4 -10z m567 -12 c2 -18 0 -19 -7 -8 -8 13 -13 13 -31 2 -13 -8
-18 -9 -14 -2 4 6 17 15 29 20 11 5 21 9 21 9 1 1 2 -9 2 -21z m-3752 -28 c23
-26 8 -26 -25 0 -18 14 -21 20 -9 20 9 0 24 -9 34 -20z m230 13 c-11 -3 -24
-9 -29 -14 -6 -5 -15 -9 -20 -9 -6 0 -2 7 8 15 11 8 29 14 40 14 20 -1 21 -1
1 -6z m3415 -43 c-24 -22 -51 -40 -60 -39 -9 0 -10 3 -3 5 6 3 28 21 48 40 20
19 42 34 48 34 6 0 -9 -18 -33 -40z m-755 20 c-3 -5 -13 -10 -21 -10 -8 0 -14
5 -14 10 0 6 9 10 21 10 11 0 17 -4 14 -10z m-3132 -17 c-3 -6 -11 -9 -19 -6
-20 7 -17 19 5 19 11 0 17 -6 14 -13z m2057 -3 c0 -5 -2 -10 -4 -10 -3 0 -8 5
-11 10 -3 6 -1 10 4 10 6 0 11 -4 11 -10z m105 2 c21 -15 7 -51 -21 -52 -6 0
-23 11 -37 24 l-27 25 28 4 c15 2 32 5 37 5 6 1 15 -2 20 -6z m1470 -10 c-3
-3 -11 0 -18 7 -9 10 -8 11 6 5 10 -3 15 -9 12 -12z m1399 3 c-4 -8 -13 -15
-21 -15 -8 0 -21 -7 -29 -15 -9 -8 -23 -15 -32 -14 -12 0 -11 3 6 9 12 5 22
12 22 15 0 4 -5 3 -11 -1 -7 -4 -10 -1 -7 7 4 12 27 21 70 28 4 0 5 -6 2 -14z
m-4784 -22 c0 -13 -3 -13 -15 -3 -8 7 -15 16 -15 21 0 5 7 6 15 3 8 -4 15 -13
15 -21z m2854 11 c3 -8 2 -12 -4 -9 -6 3 -10 10 -10 16 0 14 7 11 14 -7z m118
3 c4 -6 8 -16 8 -22 0 -5 -5 -3 -10 5 -10 17 -62 22 -72 7 -4 -6 -12 -4 -22 5
-13 14 -10 16 37 17 31 0 54 -4 59 -12z m2170 -14 c-3 -16 -7 -22 -10 -15 -2
6 -9 9 -15 5 -7 -3 -3 3 7 15 24 28 24 28 18 -5z m-4852 -25 c0 -12 -5 -15
-16 -11 -10 4 -12 8 -4 13 6 3 8 15 4 26 -5 16 -4 16 5 4 6 -8 11 -23 11 -32z
m-60 22 c0 -5 -5 -10 -11 -10 -5 0 -7 5 -4 10 3 6 8 10 11 10 2 0 4 -4 4 -10z
m1414 1 c3 -5 -3 -11 -15 -14 -16 -4 -18 -3 -8 9 13 16 16 17 23 5z m637 -4
c-6 -8 -7 -18 -3 -22 4 -5 1 -5 -6 -1 -7 4 -19 2 -27 -4 -12 -10 -15 -10 -15
0 0 6 9 14 20 17 11 3 20 9 20 14 0 5 5 9 11 9 8 0 9 -4 0 -13z m2959 -24 c0
-33 -1 -35 -13 -18 -11 14 -21 17 -46 12 -24 -5 -31 -3 -28 6 2 7 18 11 40 9
28 -3 37 0 37 12 0 9 2 16 5 16 3 0 5 -17 5 -37z m-2606 2 c33 18 39 19 31 5
-4 -7 3 -7 20 0 15 6 36 10 48 9 l22 0 -23 -11 c-30 -15 -24 -28 24 -55 54
-31 67 -29 19 4 -51 33 -49 32 -42 39 3 3 16 -4 29 -15 12 -12 34 -24 48 -27
48 -11 52 -14 47 -34 -5 -21 8 -29 15 -9 3 9 10 9 26 0 13 -7 20 -17 15 -24
-5 -8 -8 -8 -11 1 -2 7 -8 12 -14 12 -6 0 -8 -7 -5 -15 5 -11 0 -13 -25 -8
-22 4 -29 3 -24 -5 10 -17 -7 -15 -30 3 -19 15 -19 15 1 9 11 -3 7 2 -10 12
-16 9 -34 23 -38 30 -4 8 -17 14 -28 14 -17 0 -18 -3 -9 -20 6 -12 21 -20 36
-20 16 0 24 -5 21 -12 -6 -19 11 -48 28 -48 8 0 15 -4 15 -10 0 -5 7 -7 15 -4
8 4 15 2 15 -4 0 -5 16 -9 36 -7 44 4 64 -3 64 -22 0 -8 5 -11 10 -8 6 3 10 2
10 -4 0 -18 -93 -10 -137 12 -24 11 -41 23 -38 25 6 6 -43 32 -61 32 -8 0 -15
5 -15 10 -1 6 -2 15 -3 20 0 6 -6 14 -12 18 -7 4 -14 16 -16 27 -2 11 -10 19
-17 17 -7 -1 -10 2 -6 8 3 5 -1 10 -9 10 -8 0 -20 8 -26 18 -8 12 -13 13 -16
5 -3 -7 -9 -13 -13 -13 -4 0 -8 6 -8 13 0 6 -4 21 -7 32 -6 16 -5 16 6 -2 13
-21 15 -22 42 -8z m156 21 c0 -3 -4 -8 -10 -11 -5 -3 -10 -1 -10 4 0 6 5 11
10 11 6 0 10 -2 10 -4z m707 -2 c-3 -3 -12 -4 -19 -1 -8 3 -5 6 6 6 11 1 17
-2 13 -5z m63 0 c0 -11 -28 -33 -34 -27 -8 8 -57 -38 -51 -48 4 -6 -3 -6 -34
0 -2 1 2 8 9 16 7 8 16 13 20 10 5 -3 10 -2 12 3 4 10 61 51 71 52 4 0 7 -3 7
-6z m320 -1 c-8 -3 -23 -14 -34 -25 -11 -10 -29 -17 -40 -17 -20 2 -20 2 0 6
12 2 30 13 40 24 9 10 24 19 33 18 13 0 13 -2 1 -6z m60 -2 c0 -13 -28 -22
-35 -11 -3 4 1 11 7 13 20 8 28 8 28 -2z m-3553 -25 c-6 -8 -15 -12 -19 -9 -4
2 -2 10 5 17 6 8 15 12 19 9 4 -2 2 -10 -5 -17z m-552 4 c3 -5 11 -10 16 -10
6 0 7 5 3 11 -5 8 -1 8 14 0 27 -14 32 -24 23 -39 -5 -9 -18 -4 -46 18 -21 16
-33 30 -27 30 6 0 14 -4 17 -10z m3635 -6 c0 -2 -9 -4 -21 -4 -11 0 -18 4 -14
10 5 8 35 3 35 -6z m1198 -8 c-10 -7 -16 -15 -13 -17 2 -3 -5 -5 -15 -5 -29 0
-24 13 8 24 37 14 40 14 20 -2z m-4205 -18 c28 -11 34 -22 17 -33 -6 -4 -9 -1
-8 5 2 7 -7 16 -19 21 -15 5 -23 5 -23 -2 0 -6 -7 -6 -20 1 -11 6 -20 15 -20
21 0 11 21 7 73 -13z m87 -10 c0 -17 -33 -58 -47 -58 -1 0 -3 17 -2 38 0 20 3
32 5 25 8 -18 34 -4 27 14 -4 11 -2 14 5 9 7 -4 12 -17 12 -28z m1674 24 c3
-5 -1 -9 -9 -9 -8 0 -12 4 -9 9 3 4 7 8 9 8 2 0 6 -4 9 -8z m176 4 c0 -2 -7
-7 -16 -10 -8 -3 -12 -2 -9 4 6 10 25 14 25 6z m737 -2 c-3 -3 -12 -4 -19 -1
-8 3 -5 6 6 6 11 1 17 -2 13 -5z m2078 -4 c3 -5 -1 -10 -10 -10 -9 0 -13 5
-10 10 3 6 8 10 10 10 2 0 7 -4 10 -10z m-5185 -20 c0 -11 -4 -20 -9 -20 -5 0
-7 9 -4 20 3 11 7 20 9 20 2 0 4 -9 4 -20z m600 10 c0 -5 -5 -10 -11 -10 -5 0
-7 5 -4 10 3 6 8 10 11 10 2 0 4 -4 4 -10z m1390 -11 c-34 -10 -124 -11 -147
-1 -21 8 96 19 142 13 30 -5 30 -5 5 -12z m-2074 -1 c4 -7 4 -10 -1 -6 -4 4
-14 3 -22 -3 -11 -10 -11 -15 -1 -27 10 -13 10 -14 1 -8 -8 4 -13 2 -13 -6 0
-8 -5 -7 -17 5 -16 15 -16 18 2 37 21 23 40 26 51 8z m413 7 c-3 -2 -14 -6
-25 -8 -10 -1 -25 -6 -31 -10 -7 -5 -13 -4 -13 2 0 5 5 11 11 13 18 6 63 9 58
3z m2001 1 c0 -2 -6 -9 -14 -15 -11 -9 -16 -9 -22 0 -4 7 -3 9 4 5 6 -3 13 -2
17 4 6 10 15 14 15 6z m1407 -20 c-7 -13 -15 -22 -19 -20 -3 2 -13 -3 -22 -12
-9 -8 -20 -13 -25 -10 -5 4 -15 1 -23 -6 -7 -7 -26 -14 -43 -15 -16 -1 -23 0
-15 3 8 4 31 14 52 24 20 10 38 17 40 15 2 -2 17 7 33 20 17 13 31 24 32 25 0
0 -4 -11 -10 -24z m575 1 c-7 -8 -8 -18 -4 -22 4 -5 1 -5 -6 -1 -7 4 -10 12
-7 17 4 5 -2 9 -12 10 -12 1 -10 3 7 8 30 9 36 6 22 -12z m264 8 c-1 -8 -6
-18 -11 -22 -4 -4 -5 -2 -1 5 9 15 7 15 -42 -2 -35 -13 -41 -13 -46 0 -4 11 4
14 32 14 20 0 44 5 52 10 19 12 19 13 16 -5z m-2321 -15 c-3 -5 -12 -10 -18
-10 -7 0 -6 4 3 10 19 12 23 12 15 0z m2205 -7 c0 -10 -4 -14 -8 -8 -4 6 -11
13 -16 18 -5 4 -2 7 7 7 10 0 17 -8 17 -17z m-3850 -3 c0 -5 -8 -10 -17 -10
-15 0 -16 2 -3 10 19 12 20 12 20 0z m2730 -5 c-10 -12 -16 -13 -29 -3 -9 7
-18 14 -20 15 -2 2 10 3 29 3 28 0 31 -2 20 -15z m-3350 -3 c0 -10 -46 -10
-56 1 -4 4 7 7 24 7 18 0 32 -4 32 -8z m1990 4 c0 -3 -4 -8 -10 -11 -5 -3 -10
-1 -10 4 0 6 5 11 10 11 6 0 10 -2 10 -4z m740 -6 c0 -5 -2 -10 -4 -10 -3 0
-8 5 -11 10 -3 6 -1 10 4 10 6 0 11 -4 11 -10z m3867 -6 c-3 -3 -12 -4 -19 -1
-8 3 -5 6 6 6 11 1 17 -2 13 -5z m-4407 -28 c0 5 5 2 10 -6 5 -8 10 -10 10 -5
0 6 18 9 40 9 22 -1 54 -2 70 -3 24 -1 30 -6 30 -22 0 -20 1 -21 25 -5 34 22
42 20 14 -4 -13 -10 -18 -19 -11 -20 22 0 13 -30 -10 -31 -60 -3 -94 -10 -103
-22 -13 -16 -54 -20 -70 -7 -9 8 -15 8 -20 0 -3 -6 -11 -8 -16 -4 -5 3 -7 10
-4 15 4 5 2 9 -4 9 -5 0 -12 -10 -14 -22 -3 -15 -5 -11 -5 12 -2 40 6 54 30
58 13 2 16 -2 12 -13 -5 -13 -2 -15 22 -8 16 4 39 7 51 6 15 -1 20 3 16 11 -4
6 1 5 10 -2 18 -15 67 -23 67 -11 0 16 -22 21 -31 8 -6 -9 -9 -10 -9 -2 0 6
10 19 23 29 19 14 19 15 2 9 -11 -5 -37 -10 -57 -13 -21 -2 -38 -8 -38 -12 0
-5 -14 -2 -30 7 -17 8 -38 12 -46 9 -10 -4 -14 -2 -10 6 3 7 9 22 13 32 6 18
7 18 20 1 7 -11 13 -15 13 -9z m1387 4 c1 -9 -5 -17 -12 -17 -8 0 -12 4 -10 8
3 4 -4 5 -16 2 -16 -4 -17 -8 -7 -14 10 -7 10 -9 -2 -9 -8 -1 -67 -3 -132 -6
-76 -4 -122 -2 -135 5 -14 8 0 11 64 10 55 -1 88 3 99 12 9 7 18 9 22 3 12
-16 45 -13 72 6 30 22 56 22 57 0z m853 13 c0 -16 -16 -31 -40 -38 -22 -7 -23
-6 -11 9 7 9 20 16 27 16 8 0 14 5 14 10 0 6 2 10 5 10 3 0 5 -3 5 -7z m35 -3
c3 -5 13 -6 23 -3 10 4 7 -2 -8 -14 -14 -12 -27 -19 -30 -16 -3 3 1 8 8 10 10
4 8 9 -5 19 -10 7 -13 14 -6 14 6 0 14 -4 18 -10z m-4360 -20 c-7 -12 30 -32
40 -22 5 4 5 2 1 -5 -11 -19 -51 1 -52 25 -1 12 3 19 8 16 4 -3 6 -9 3 -14z
m2853 -3 c2 -10 -2 -17 -8 -17 -6 0 -9 4 -6 9 3 5 -1 11 -9 14 -9 4 -12 1 -8
-9 4 -10 -2 -14 -22 -14 l-27 0 23 19 c27 22 53 21 57 -2z m427 5 c-3 -3 -11
0 -18 7 -9 10 -8 11 6 5 10 -3 15 -9 12 -12z m110 8 c8 -13 -5 -13 -25 0 -13
8 -13 10 2 10 9 0 20 -4 23 -10z m-472 -18 c-2 -6 2 -12 7 -12 6 0 10 5 10 10
0 15 33 12 67 -5 27 -13 34 -13 58 -1 21 11 32 12 46 3 27 -17 12 -25 -63 -35
-53 -7 -68 -6 -68 4 0 7 -5 16 -12 20 -7 5 -9 2 -5 -8 11 -29 -12 -37 -60 -21
-24 8 -42 18 -39 20 3 3 19 0 37 -6 39 -14 62 -14 54 -1 -3 5 -12 7 -20 4 -8
-4 -18 1 -21 10 -3 9 -12 16 -20 16 -8 0 -14 5 -14 11 0 6 10 9 23 7 12 -2 21
-9 20 -16z m852 -7 c104 -22 185 -29 185 -17 0 6 9 8 21 5 16 -5 18 -8 7 -15
-9 -7 -7 -8 10 -5 12 3 20 2 17 -3 -2 -4 7 -7 20 -7 29 0 34 13 8 20 -10 3 6
5 35 6 38 1 52 -3 52 -13 0 -20 -30 -29 -36 -11 -4 8 -10 15 -16 15 -5 0 -6
-4 -3 -10 3 -5 1 -10 -4 -10 -21 0 -11 -38 11 -43 18 -5 19 -8 8 -22 -7 -9
-18 -14 -24 -12 -6 2 -23 1 -37 -4 -17 -4 -32 -3 -39 4 -10 9 -14 9 -17 0 -3
-7 -18 -13 -34 -13 -29 0 -39 14 -16 23 6 3 2 6 -10 6 -13 1 -23 -3 -23 -9 0
-5 -4 -10 -9 -10 -4 0 -6 11 -3 25 2 14 0 25 -6 25 -6 0 -9 9 -7 19 3 17 -5
22 -53 31 -31 6 -70 15 -87 20 -16 5 -51 10 -77 11 -27 2 -48 6 -48 9 0 11 90
3 175 -15z m-3379 -15 c0 -12 -4 -16 -9 -11 -5 5 -6 14 -3 20 10 15 12 14 12
-9z m41 -47 c-2 -16 -4 -5 -4 22 0 28 2 40 4 28 2 -13 2 -35 0 -50z m2317 61
c23 -9 20 -23 -4 -17 -11 3 -20 9 -20 14 0 11 3 11 24 3z m1431 -6 c3 -3 -5
-8 -19 -10 -14 -3 -27 0 -29 6 -5 12 38 15 48 4z m63 -13 c2 -10 0 -15 -6 -11
-6 3 -13 2 -17 -3 -3 -6 -11 -8 -18 -5 -7 2 -13 -4 -14 -16 -1 -12 4 -20 13
-20 8 0 13 4 10 9 -4 5 3 7 14 4 12 -3 20 -2 19 3 -4 16 13 44 25 44 7 0 18
-12 25 -27 10 -25 10 -26 -3 -9 -17 21 -40 12 -33 -14 3 -13 0 -17 -9 -13 -8
3 -22 2 -31 -2 -35 -15 -55 -15 -76 1 l-22 16 22 -5 c13 -3 27 1 35 11 11 13
9 15 -15 10 -17 -3 -25 -2 -20 3 5 5 20 11 32 14 52 10 64 17 50 27 -12 8 -11
9 1 5 8 -2 17 -12 18 -22z m-543 6 c-3 -6 3 -10 12 -10 10 0 33 -1 51 -1 28
-1 31 -4 22 -16 -7 -7 -16 -11 -21 -8 -5 3 -9 1 -9 -5 0 -5 5 -13 10 -16 6 -3
10 -2 10 3 0 6 7 12 14 15 10 4 13 1 9 -9 -5 -13 -17 -18 -35 -15 -5 0 -8 -3
-8 -9 0 -15 -26 -12 -39 4 -10 11 -8 17 6 25 10 6 14 10 8 10 -5 0 -19 -6 -29
-14 -11 -8 -14 -15 -8 -15 16 0 15 -11 -4 -35 -13 -17 -16 -18 -24 -5 -5 8 -7
26 -5 39 2 13 0 32 -5 42 -8 15 -5 18 18 22 15 2 28 5 30 6 2 0 1 -3 -3 -8z
m-861 -9 c2 -4 -4 -8 -14 -8 -10 0 -16 4 -14 8 3 4 9 8 14 8 5 0 11 -4 14 -8z
m610 -8 c9 -8 16 -11 16 -6 0 6 7 13 16 16 13 5 15 1 12 -24 -3 -16 -1 -30 4
-30 4 0 8 7 8 15 0 8 6 12 14 9 10 -4 13 0 10 13 -4 15 1 18 35 18 26 0 41 -5
41 -12 0 -7 -7 -10 -15 -7 -8 4 -15 1 -15 -6 0 -7 -6 -10 -14 -7 -10 4 -12 0
-9 -14 3 -10 9 -16 14 -13 5 3 9 -2 9 -11 0 -9 5 -13 10 -10 6 4 7 12 3 18 -3
7 3 3 15 -7 22 -19 32 -10 11 11 -7 7 -3 9 15 6 21 -4 24 -8 15 -19 -8 -10 -8
-14 0 -14 6 0 11 -4 11 -9 0 -5 -41 -9 -90 -9 -82 -1 -91 1 -102 21 -17 33
-30 42 -62 45 -33 2 -43 8 -32 19 4 4 16 1 28 -6 14 -9 18 -9 13 -1 -4 7 -1
16 6 21 18 11 15 12 33 -7z m193 -13 c-1 -11 -7 -17 -14 -14 -14 5 -17 25 -7
36 11 11 23 -2 21 -22z m-294 -11 c-3 -12 -8 -19 -11 -16 -5 6 5 36 12 36 2 0
2 -9 -1 -20z m-828 0 c-3 -5 -12 -10 -18 -10 -7 0 -6 4 3 10 19 12 23 12 15 0z
m674 -21 c-6 -3 -9 -17 -7 -30 2 -19 -2 -24 -23 -25 -14 -2 -48 -7 -75 -12
-53 -9 -74 -6 -74 10 0 6 11 8 25 4 29 -7 30 -2 11 36 -11 21 -12 29 -3 34 7
4 9 4 5 -1 -4 -4 0 -14 10 -21 23 -18 32 -17 32 4 0 11 7 7 21 -15 23 -36 36
-45 19 -14 -12 23 2 36 26 27 11 -4 18 1 21 15 4 15 8 17 14 8 4 -8 3 -16 -2
-20z m1884 22 c14 -1 17 -9 16 -43 l-2 -43 -7 40 c-4 22 -8 34 -9 27 0 -6 -20
-30 -42 -52 -23 -22 -37 -40 -32 -40 5 0 13 3 16 6 3 4 21 8 39 9 34 2 34 2
32 -42 -2 -51 -13 -71 -15 -27 -1 16 -1 32 0 37 0 4 -18 8 -41 9 -62 2 -66 2
-75 12 -4 5 -3 6 5 2 6 -4 12 -3 12 3 0 5 -6 12 -12 15 -9 4 -8 5 2 5 32 -2
47 2 66 17 19 15 18 15 -3 9 -49 -13 -60 -13 -60 2 0 10 8 13 23 10 19 -3 21
-2 11 15 -7 10 -15 18 -19 18 -5 0 -8 4 -8 10 0 6 18 8 43 6 23 -3 50 -5 60
-5z m-2083 -12 c0 -5 4 -8 9 -5 5 3 12 -1 15 -10 3 -8 2 -12 -4 -9 -6 4 -10
-7 -10 -24 0 -28 -3 -31 -31 -31 -24 0 -30 4 -27 20 2 10 -1 19 -7 19 -5 0 -9
-7 -7 -15 3 -12 -5 -14 -40 -10 -24 3 -44 5 -46 5 -2 1 0 6 3 11 3 6 17 10 29
10 13 0 29 7 36 15 7 9 19 14 26 11 7 -3 15 2 18 10 6 16 36 19 36 3z m310 -9
c0 -10 71 -21 84 -12 21 13 32 10 31 -9 -2 -25 -15 -37 -15 -14 0 14 -3 15
-15 5 -12 -10 -21 -10 -40 -2 -19 9 -25 9 -26 -1 0 -9 -2 -9 -6 1 -2 6 -11 12
-19 12 -8 0 -14 6 -14 13 0 7 -5 5 -10 -5 -8 -13 -14 -14 -35 -5 -33 16 -32
26 1 19 17 -3 25 -1 21 5 -4 6 3 8 18 5 14 -2 25 -8 25 -12z m810 0 c0 -5 -4
-10 -10 -10 -5 0 -10 5 -10 10 0 6 5 10 10 10 6 0 10 -4 10 -10z m-3680 -39
c0 -14 -6 -17 -26 -13 l-25 5 23 12 c13 7 24 13 26 14 1 1 2 -7 2 -18z m1965
9 c3 -5 1 -10 -4 -10 -6 0 -11 5 -11 10 0 6 2 10 4 10 3 0 8 -4 11 -10z m865
-10 c13 -9 13 -10 0 -10 -8 0 -22 5 -30 10 -13 9 -13 10 0 10 8 0 22 -5 30
-10z m503 3 c-7 -3 -13 -10 -13 -17 0 -8 -10 -11 -31 -8 -30 4 -30 5 -7 16 13
7 32 12 43 13 11 0 14 -1 8 -4z m47 3 c0 -3 -4 -8 -10 -11 -5 -3 -10 -1 -10 4
0 6 5 11 10 11 6 0 10 -2 10 -4z m-4300 -36 c0 -5 -5 -10 -11 -10 -5 0 -7 5
-4 10 3 6 8 10 11 10 2 0 4 -4 4 -10z m5230 0 c0 -5 -5 -10 -11 -10 -5 0 -7 5
-4 10 3 6 8 10 11 10 2 0 4 -4 4 -10z m-550 -14 c0 -3 -4 -8 -10 -11 -5 -3
-10 -1 -10 4 0 6 5 11 10 11 6 0 10 -2 10 -4z m-61 -19 c-2 -1 -17 -13 -32
-27 -21 -18 -26 -20 -21 -7 3 9 10 17 16 17 5 0 7 4 4 8 -2 4 5 9 16 9 11 1
19 1 17 0z m-240 -10 c-2 -2 -17 -11 -34 -21 l-30 -17 24 20 c13 12 28 21 34
21 6 0 8 -1 6 -3z m1166 -19 c5 -5 -5 -6 -25 -2 -19 4 -39 11 -45 16 -5 5 5 6
25 2 19 -4 39 -11 45 -16z m-1071 -3 c-10 -8 -23 -15 -28 -15 -6 0 -1 7 10 15
10 8 23 15 28 15 6 0 1 -7 -10 -15z m236 11 c0 -2 -8 -10 -17 -17 -16 -13 -17
-12 -4 4 13 16 21 21 21 13z m790 -16 c14 -4 19 -8 12 -9 -9 -1 -11 -9 -8 -23
3 -13 3 -17 0 -10 -3 6 -20 12 -37 12 -29 1 -30 2 -12 12 19 11 19 11 0 19
-20 7 -20 8 0 7 11 0 31 -4 45 -8z m-4900 -10 c0 -5 -5 -10 -11 -10 -5 0 -7 5
-4 10 3 6 8 10 11 10 2 0 4 -4 4 -10z m297 4 c-3 -3 -12 -4 -19 -1 -8 3 -5 6
6 6 11 1 17 -2 13 -5z m3333 -4 c0 -5 -12 -10 -27 -9 l-28 1 25 8 c14 4 26 8
28 9 1 1 2 -3 2 -9z m244 -15 c-4 -8 -11 -15 -16 -15 -6 0 -5 6 2 15 7 8 14
15 16 15 2 0 1 -7 -2 -15z m-3579 -5 c-3 -5 -12 -10 -18 -10 -7 0 -6 4 3 10
19 12 23 12 15 0z m3266 -17 c12 -16 12 -17 -1 -7 -8 6 -22 14 -30 17 -13 5
-12 6 1 6 9 1 23 -7 30 -16z m263 2 c-4 -8 -11 -15 -16 -15 -6 0 -5 6 2 15 7
8 14 15 16 15 2 0 1 -7 -2 -15z m-374 -10 c-7 -8 -20 -15 -29 -15 -11 0 -8 5
9 14 33 19 35 19 20 1z m1440 11 c0 -9 -30 -14 -35 -6 -4 6 3 10 14 10 12 0
21 -2 21 -4z m80 -9 c0 -5 -7 -7 -15 -3 -9 3 -15 0 -15 -9 0 -19 -39 -28 -70
-16 -24 9 -22 10 18 16 23 4 44 11 47 15 6 10 35 8 35 -3z m-4676 -9 c-3 -4
-9 -8 -15 -8 -5 0 -9 4 -9 8 0 5 7 9 15 9 8 0 12 -4 9 -9z m4216 -8 c0 -5 -5
-10 -11 -10 -5 0 -7 5 -4 10 3 6 8 10 11 10 2 0 4 -4 4 -10z m-727 -15 c-3 -9
-8 -14 -10 -11 -3 3 -2 9 2 15 9 16 15 13 8 -4z m1184 -5 c-5 -30 -12 -32 -15
-5 -1 14 3 25 8 25 5 0 9 -9 7 -20z m-4677 0 c0 -5 -4 -10 -10 -10 -5 0 -10 5
-10 10 0 6 5 10 10 10 6 0 10 -4 10 -10z m27 -22 c-3 -7 -5 -2 -5 12 0 14 2
19 5 13 2 -7 2 -19 0 -25z m3173 23 c0 -5 -7 -12 -16 -15 -14 -5 -15 -4 -4 9
14 17 20 19 20 6z m-115 -21 c-3 -5 -12 -10 -18 -10 -7 0 -6 4 3 10 19 12 23
12 15 0z m1536 0 c22 7 29 5 29 -6 0 -15 -9 -18 -49 -14 -13 1 -21 -3 -17 -8
3 -5 26 -9 51 -7 38 2 45 -1 40 -14 -3 -9 -7 -72 -10 -139 -3 -92 -8 -126 -20
-138 -17 -17 -20 -28 -6 -19 14 8 24 -31 13 -52 -5 -10 -10 -36 -11 -58 -2
-48 -11 -61 -11 -17 0 18 -4 32 -10 32 -14 0 -12 37 3 43 7 3 5 6 -5 6 -10 1
-18 -3 -18 -8 0 -13 -53 -21 -65 -10 -7 7 -4 8 8 4 12 -5 17 -2 17 9 0 9 -6
13 -14 10 -8 -3 -21 4 -29 16 -14 21 -16 17 -22 -53 -4 -41 -6 -96 -4 -121 3
-27 0 -46 -6 -46 -5 0 -3 -5 5 -10 13 -9 13 -10 0 -10 -12 -1 -12 -2 2 -10 9
-6 15 -18 13 -28 -2 -9 -4 -20 -4 -23 -1 -4 -7 -9 -14 -12 -13 -5 -18 18 -20
93 -2 58 36 506 44 520 5 8 6 -23 3 -70 -9 -132 -10 -200 -4 -200 3 0 19 9 36
19 17 10 40 21 50 24 14 4 13 6 -6 5 -41 -1 -46 2 -30 13 13 9 12 10 -2 5 -26
-8 -44 26 -26 50 13 18 80 16 94 -4 15 -20 9 -32 -16 -32 -10 0 -22 -5 -25
-10 -4 -7 2 -9 19 -4 16 4 26 2 26 -5 0 -6 4 -11 8 -11 5 0 9 21 10 48 2 26 5
55 8 65 3 9 1 17 -5 17 -6 0 -11 -9 -11 -19 0 -25 -12 -32 -30 -20 -13 7 -13
10 -1 18 9 6 5 8 -15 8 -16 0 -23 -2 -16 -4 6 -3 10 -9 7 -13 -3 -5 -12 -7
-20 -4 -8 4 -12 10 -9 15 3 5 -1 9 -9 9 -7 0 -14 7 -14 15 0 9 5 14 11 12 6
-2 19 4 28 14 16 17 16 18 -2 24 -26 8 -18 40 11 42 l24 2 -25 -8 -25 -7 28
-8 c19 -4 35 -2 45 6 15 12 15 11 0 -13 -16 -25 -16 -26 8 -21 17 3 24 11 24
27 0 21 -6 24 -62 31 -35 4 -56 9 -46 11 27 6 31 33 5 34 -21 1 -20 1 3 8 14
4 26 4 28 0 2 -4 16 -3 33 1z m-4606 -14 c12 -11 9 -18 -18 -43 -30 -27 -117
-69 -117 -55 0 11 33 42 47 42 7 0 13 3 13 8 0 11 44 62 53 62 5 0 15 -6 22
-14z m1750 -16 c-3 -5 -12 -10 -18 -10 -7 0 -6 4 3 10 19 12 23 12 15 0z m685
7 c0 -2 -10 -12 -22 -23 l-23 -19 19 23 c18 21 26 27 26 19z m-3270 -27 c0 -5
-8 -10 -17 -10 -15 0 -16 2 -3 10 19 12 20 12 20 0z m2547 -6 c-3 -3 -12 -4
-19 -1 -8 3 -5 6 6 6 11 1 17 -2 13 -5z m1783 2 c0 -3 -4 -8 -10 -11 -5 -3
-10 -1 -10 4 0 6 5 11 10 11 6 0 10 -2 10 -4z m-4273 -12 c-3 -3 -12 -4 -19
-1 -8 3 -5 6 6 6 11 1 17 -2 13 -5z m2383 -9 c-7 -8 -20 -15 -28 -15 -13 0
-12 3 4 15 25 19 40 19 24 0z m365 5 c3 -5 2 -10 -4 -10 -5 0 -13 5 -16 10 -3
6 -2 10 4 10 5 0 13 -4 16 -10z m-325 -10 c0 -5 -4 -10 -10 -10 -5 0 -10 5
-10 10 0 6 5 10 10 10 6 0 10 -4 10 -10z m405 -19 c-3 -6 -11 -11 -16 -11 -5
0 -4 6 3 14 14 16 24 13 13 -3z m1350 10 c-6 -5 -21 -11 -35 -15 -21 -5 -20
-3 5 9 35 17 42 18 30 6z m329 -12 c-8 -9 -17 -25 -18 -35 -4 -24 -23 -30 -21
-7 2 29 23 60 40 60 14 0 14 -2 -1 -18z m-3900 -16 c-9 -34 -106 -84 -119 -62
-8 12 14 31 26 23 4 -2 9 -1 11 3 1 5 21 18 43 29 22 12 41 22 42 23 0 1 -1
-7 -3 -16z m2621 -2 c-3 -6 -12 -11 -20 -11 -8 0 -18 -8 -24 -17 -8 -15 -12
-16 -23 -4 -7 8 -8 11 -3 8 6 -3 23 6 40 19 29 23 43 25 30 5z m1000 9 c-3 -5
-11 -10 -16 -10 -6 0 -7 5 -4 10 3 6 11 10 16 10 6 0 7 -4 4 -10z m-4045 -10
c0 -5 -5 -10 -11 -10 -5 0 -7 5 -4 10 3 6 8 10 11 10 2 0 4 -4 4 -10z m2590 0
c0 -5 -5 -10 -11 -10 -5 0 -7 5 -4 10 3 6 8 10 11 10 2 0 4 -4 4 -10z m380 3
c-1 -11 -61 -76 -65 -71 -4 4 55 77 63 78 1 0 2 -3 2 -7z m170 -3 c0 -5 -2
-10 -4 -10 -3 0 -8 5 -11 10 -3 6 -1 10 4 10 6 0 11 -4 11 -10z m122 -6 c-22
-15 -42 -12 -42 7 0 5 15 9 32 9 32 0 32 0 10 -16z m778 -14 c0 -5 -5 -10 -11
-10 -5 0 -7 5 -4 10 3 6 8 10 11 10 2 0 4 -4 4 -10z m710 -14 c0 -3 -4 -8 -10
-11 -5 -3 -10 -1 -10 4 0 6 5 11 10 11 6 0 10 -2 10 -4z m-4284 -15 c-6 -9
-46 -22 -46 -15 0 3 10 9 23 14 29 11 29 11 23 1z m-206 -26 c-7 -8 -18 -15
-24 -15 -6 0 -2 7 8 15 25 19 32 19 16 0z m-100 -16 c0 -4 -11 -6 -24 -5 -13
0 -22 4 -20 8 6 9 44 6 44 -3z m2840 -13 c0 -3 -4 -8 -10 -11 -5 -3 -10 -1
-10 4 0 6 5 11 10 11 6 0 10 -2 10 -4z m294 -11 c-6 -16 -24 -21 -24 -7 0 11
11 22 21 22 5 0 6 -7 3 -15z m-1314 -5 c-20 -13 -33 -13 -25 0 3 6 14 10 23
10 15 0 15 -2 2 -10z m-1723 -47 c-3 -10 -5 -4 -5 12 0 17 2 24 5 18 2 -7 2
-21 0 -30z m2723 33 c0 -2 -7 -7 -16 -10 -8 -3 -12 -2 -9 4 6 10 25 14 25 6z
m635 -16 c3 -5 1 -10 -4 -10 -6 0 -11 5 -11 10 0 6 2 10 4 10 3 0 8 -4 11 -10z
m52 4 c-3 -3 -12 -4 -19 -1 -8 3 -5 6 6 6 11 1 17 -2 13 -5z m-3524 -11 c-7
-2 -21 -2 -30 0 -10 3 -4 5 12 5 17 0 24 -2 18 -5z m1437 3 c0 -2 -8 -10 -17
-17 -16 -13 -17 -12 -4 4 13 16 21 21 21 13z m1437 -2 c-3 -3 -12 -4 -19 -1
-8 3 -5 6 6 6 11 1 17 -2 13 -5z m-2714 -19 c-3 -9 -8 -14 -10 -11 -3 3 -2 9
2 15 9 16 15 13 8 -4z m3262 5 c3 -6 -1 -7 -9 -4 -18 7 -21 14 -7 14 6 0 13
-4 16 -10z m185 0 c-8 -5 -19 -10 -25 -10 -5 0 -3 5 5 10 8 5 20 10 25 10 6 0
3 -5 -5 -10z m-680 -4 c0 -3 -4 -8 -10 -11 -5 -3 -10 -1 -10 4 0 6 5 11 10 11
6 0 10 -2 10 -4z m2057 -12 c-3 -3 -12 -4 -19 -1 -8 3 -5 6 6 6 11 1 17 -2 13
-5z m-4873 -10 c33 -13 17 -41 -34 -62 l-50 -21 0 35 c0 31 3 34 28 34 l27 0
-25 -20 c-26 -20 -12 -27 20 -10 12 6 16 17 13 30 -6 22 -3 23 21 14z m1281
-4 c3 -5 1 -10 -4 -10 -6 0 -11 5 -11 10 0 6 2 10 4 10 3 0 8 -4 11 -10z
m2215 0 c-8 -5 -19 -10 -25 -10 -5 0 -3 5 5 10 8 5 20 10 25 10 6 0 3 -5 -5
-10z m-3754 -15 c-7 -19 24 -20 44 -2 8 6 3 -4 -11 -23 -30 -42 -57 -97 -73
-153 -11 -39 -10 -46 17 -100 38 -75 61 -91 155 -112 142 -32 389 3 590 84 54
22 84 27 66 13 -8 -7 -76 -34 -149 -60 -92 -32 -186 -51 -386 -77 -71 -10
-269 32 -269 55 0 5 -6 7 -13 4 -8 -3 -28 17 -50 50 -44 66 -49 121 -17 166
12 17 16 30 9 32 -16 5 34 58 56 58 19 1 19 1 3 14 -17 12 -16 15 5 39 26 30
31 33 23 12z m1969 5 c-3 -5 -14 -10 -23 -9 -14 0 -13 2 3 9 27 11 27 11 20 0z
m1540 0 c-3 -5 -12 -10 -18 -10 -7 0 -6 4 3 10 19 12 23 12 15 0z m-564 -18
c-7 -2 -18 1 -23 6 -8 8 -4 9 13 5 13 -4 18 -8 10 -11z m716 12 c-3 -3 -12 -4
-19 -1 -8 3 -5 6 6 6 11 1 17 -2 13 -5z m-127 -8 c0 -3 -13 -14 -28 -25 -22
-16 -29 -17 -29 -5 0 7 8 14 18 14 10 0 21 5 24 10 6 10 15 13 15 6z m-2035
-16 c-3 -5 -13 -10 -21 -10 -8 0 -29 -7 -45 -16 -17 -8 -36 -13 -42 -11 -14 5
70 45 96 46 10 1 15 -3 12 -9z m395 6 c0 -2 -7 -7 -16 -10 -8 -3 -12 -2 -9 4
6 10 25 14 25 6z m-166 -15 c3 -5 -5 -11 -19 -13 -28 -6 -35 8 -7 15 9 3 18 5
19 6 1 0 4 -3 7 -8z m251 -11 c12 -2 6 -5 -15 -9 -19 -4 -43 -3 -53 2 -12 5
-23 4 -32 -3 -8 -7 -15 -7 -19 -1 -11 16 35 21 119 11z m-165 -4 c0 -3 -4 -8
-10 -11 -5 -3 -10 -1 -10 4 0 6 5 11 10 11 6 0 10 -2 10 -4z m1760 0 c0 -2 -7
-7 -16 -10 -8 -3 -12 -2 -9 4 6 10 25 14 25 6z m57 -3 c-12 -3 -16 -10 -13
-20 5 -12 4 -13 -7 -5 -8 7 -16 11 -18 9 -2 -1 2 4 10 11 8 6 22 11 30 11 12
-1 11 -3 -2 -6z m-2019 -9 c-3 -3 -27 -12 -54 -20 -52 -15 -52 -6 -1 13 35 12
64 16 55 7z m1324 -23 c-5 -3 -12 -15 -14 -26 -5 -18 -6 -19 -13 -2 -8 20 12
50 27 41 7 -4 7 -9 0 -13z m718 9 c0 -5 -4 -10 -10 -10 -5 0 -10 5 -10 10 0 6
5 10 10 10 6 0 10 -4 10 -10z m1530 -20 c0 -5 -2 -10 -4 -10 -3 0 -8 5 -11 10
-3 6 -1 10 4 10 6 0 11 -4 11 -10z m-5327 -18 c-12 -12 -20 -14 -25 -8 -4 6 0
14 10 18 29 11 33 9 15 -10z m1402 -3 c-22 -10 -46 -19 -52 -19 -7 0 -12 -6
-10 -12 1 -8 -9 -13 -28 -13 -16 -1 -47 -7 -69 -14 -29 -10 -35 -16 -25 -23
10 -7 7 -7 -8 -3 -12 3 -37 0 -55 -8 -66 -28 -144 -56 -173 -62 -41 -8 62 42
135 65 30 10 54 22 53 27 -1 4 11 9 25 9 15 1 70 17 122 37 101 38 151 48 85
16z m1615 7 c0 -3 -4 -8 -10 -11 -5 -3 -10 -1 -10 4 0 6 5 11 10 11 6 0 10 -2
10 -4z m715 -6 c3 -6 -1 -7 -9 -4 -18 7 -21 14 -7 14 6 0 13 -4 16 -10z
m-2205 -4 c0 -2 -8 -10 -17 -17 -16 -13 -17 -12 -4 4 13 16 21 21 21 13z
m2160 0 c0 -2 -8 -10 -17 -17 -16 -13 -17 -12 -4 4 13 16 21 21 21 13z m1657
-18 c-3 -8 -6 -5 -6 6 -1 11 2 17 5 13 3 -3 4 -12 1 -19z m-1242 3 c3 -5 2
-12 -3 -15 -5 -3 -9 1 -9 9 0 17 3 19 12 6z m-915 -17 c0 -14 -3 -15 -17 -3
-10 7 -20 15 -22 16 -2 2 5 3 17 3 14 0 22 -6 22 -16z m380 12 c0 -2 -8 -10
-17 -17 -16 -13 -17 -12 -4 4 13 16 21 21 21 13z m-3603 -28 c-3 -8 -6 -5 -6
6 -1 11 2 17 5 13 3 -3 4 -12 1 -19z m1483 -28 c-6 -11 -16 -20 -22 -20 -6 0
-3 9 7 20 10 11 20 20 22 20 2 0 -1 -9 -7 -20z m2625 10 c-3 -5 -14 -10 -23
-9 -14 0 -13 2 3 9 27 11 27 11 20 0z m1286 1 c12 21 22 3 15 -27 l-7 -27 -15
28 c-8 15 -14 30 -13 34 0 3 3 0 6 -8 4 -11 7 -11 14 0z m-1861 -15 c0 -2 -8
-10 -17 -17 -16 -13 -17 -12 -4 4 13 16 21 21 21 13z m-2170 -30 c0 -2 -8 -10
-17 -17 -16 -13 -17 -12 -4 4 13 16 21 21 21 13z m2083 -16 c-4 -16 -8 -18
-19 -9 -20 16 -17 29 5 29 14 0 18 -5 14 -20z m-2038 -13 c6 -5 2 -6 -9 -3
-10 4 -26 0 -35 -8 -21 -18 -66 -32 -57 -17 4 6 13 11 19 11 7 0 23 9 37 20
14 10 27 16 30 12 3 -4 10 -11 15 -15z m35 3 c0 -5 -2 -10 -4 -10 -3 0 -8 5
-11 10 -3 6 -1 10 4 10 6 0 11 -4 11 -10z m2055 0 c3 -5 -1 -10 -10 -10 -9 0
-13 5 -10 10 3 6 8 10 10 10 2 0 7 -4 10 -10z m80 0 c-3 -5 -12 -10 -18 -10
-7 0 -6 4 3 10 19 12 23 12 15 0z m1830 -10 c-3 -5 -1 -19 5 -29 9 -17 6 -23
-17 -35 -26 -14 -27 -15 -5 -16 12 0 22 -4 22 -10 0 -5 -8 -6 -17 -3 -16 6
-16 5 -4 -10 18 -22 8 -32 -17 -18 -12 6 -29 11 -39 11 -17 -1 -17 -1 1 -15
10 -8 23 -12 29 -8 6 4 7 1 3 -6 -5 -7 -14 -10 -22 -7 -8 3 -14 1 -14 -4 0 -6
5 -10 10 -10 6 0 10 -8 10 -17 0 -13 -8 -9 -30 16 -24 26 -34 30 -44 22 -10
-9 -15 -8 -19 3 -6 16 38 36 79 36 22 0 24 4 24 46 0 33 5 51 17 60 19 13 37
9 28 -6z m-4120 -10 c-3 -5 -11 -10 -16 -10 -6 0 -7 5 -4 10 3 6 11 10 16 10
6 0 7 -4 4 -10z m2244 7 c-2 -1 -15 -11 -29 -22 l-25 -20 19 23 c11 12 24 22
29 22 6 0 8 -1 6 -3z m-1964 -27 c-3 -5 -14 -10 -23 -9 -14 0 -13 2 3 9 27 11
27 11 20 0z m1799 -5 c-4 -8 -8 -15 -10 -15 -2 0 -4 7 -4 15 0 8 4 15 10 15 5
0 7 -7 4 -15z m-2229 -25 c-3 -5 -12 -10 -18 -10 -7 0 -6 4 3 10 19 12 23 12
15 0z m2264 -18 c-10 -17 -10 -23 0 -36 8 -10 9 -16 3 -16 -6 0 -14 5 -17 10
-4 6 -15 8 -24 5 -11 -3 -18 0 -18 9 0 8 6 12 13 9 7 -2 20 7 30 22 19 30 32
27 13 -3z m2058 6 c-3 -8 -6 -5 -6 6 -1 11 2 17 5 13 3 -3 4 -12 1 -19z
m-4367 2 c-8 -5 -22 -9 -30 -9 -10 0 -8 3 5 9 27 12 43 12 25 0z m2350 6 c0
-2 -8 -10 -17 -17 -16 -13 -17 -12 -4 4 13 16 21 21 21 13z m-120 -25 c-5 -11
-15 -23 -22 -27 -7 -5 -8 -2 -3 7 21 37 44 55 25 20z m1890 10 c10 -1 8 -6 -7
-16 -14 -10 -20 -21 -16 -32 4 -11 3 -14 -5 -9 -7 4 -12 3 -12 -3 0 -5 32 -15
71 -22 50 -9 73 -18 76 -29 6 -23 43 -23 44 1 3 40 4 44 17 43 27 -2 31 -5 27
-16 -2 -7 -6 -70 -9 -139 -3 -70 -10 -137 -15 -150 -5 -13 -10 -18 -10 -11 -1
8 -10 11 -26 8 -14 -3 -23 -1 -20 4 3 4 -3 11 -12 14 -12 5 -13 10 -5 18 8 8
15 8 27 -2 8 -7 18 -10 22 -7 3 4 -2 9 -11 13 -9 3 -13 11 -10 16 4 6 -2 8
-15 3 -16 -5 -20 -3 -15 9 3 9 10 16 15 16 5 0 9 5 9 11 0 5 -5 7 -12 3 -8 -5
-9 2 -5 24 5 26 3 32 -11 32 -15 1 -15 2 2 11 12 7 21 8 25 2 3 -6 16 -13 28
-17 17 -5 21 -3 19 11 -2 9 -9 19 -17 21 -11 3 -11 1 1 -7 26 -18 -7 -13 -38
7 -15 9 -27 24 -26 32 0 10 -1 11 -3 2 -3 -8 -11 -11 -21 -7 -10 4 -23 9 -29
12 -9 3 -13 -5 -13 -24 0 -21 5 -29 20 -30 11 -1 22 2 25 8 4 5 11 9 18 9 6 0
1 -7 -11 -16 -13 -9 -26 -13 -29 -10 -3 3 -11 2 -18 -4 -8 -6 -17 4 -29 35
-11 24 -23 42 -27 39 -5 -3 -9 2 -9 10 0 10 6 13 18 9 14 -5 13 -3 -3 10 -16
13 -17 18 -7 25 11 8 11 10 -2 15 -10 4 -16 18 -16 37 0 22 -5 30 -17 30 -13
0 -15 2 -5 8 7 5 23 7 35 6 12 -1 29 -3 37 -3z m-4183 -7 c-3 -3 -12 -4 -19
-1 -8 3 -5 6 6 6 11 1 17 -2 13 -5z m4268 -4 c3 -5 -3 -10 -15 -10 -12 0 -18
5 -15 10 3 6 10 10 15 10 5 0 12 -4 15 -10z m-2025 -25 c-6 -8 -17 -12 -25 -9
-18 7 -31 -16 -15 -26 8 -5 3 -8 -13 -7 -35 2 -34 6 10 39 35 27 65 29 43 3z
m1697 9 c-3 -3 -12 -4 -19 -1 -8 3 -5 6 6 6 11 1 17 -2 13 -5z m67 -18 c-5
-14 -9 -15 -15 -5 -5 8 -3 17 4 21 15 9 19 4 11 -16z m430 9 c-4 -8 -10 -12
-15 -9 -11 6 -2 24 11 24 5 0 7 -7 4 -15z m118 -15 c65 -33 73 -35 62 -18 -4
7 -3 8 4 4 21 -13 12 -24 -23 -28 -34 -4 -49 6 -22 15 6 2 0 6 -14 9 -22 4
-25 2 -21 -14 2 -10 -1 -18 -7 -18 -6 0 -11 7 -11 15 0 8 -6 15 -12 16 -10 0
-10 2 0 6 6 2 9 9 6 14 -3 6 -11 5 -20 -2 -12 -10 -13 -9 -8 6 5 11 3 16 -2
12 -6 -3 -16 -2 -24 4 -12 7 -10 9 9 9 13 0 50 -13 83 -30z m-342 16 c0 -2 -8
-10 -17 -17 -16 -13 -17 -12 -4 4 13 16 21 21 21 13z m-1795 -36 c-3 -5 0 -10
7 -11 7 0 2 -5 -11 -10 -13 -5 -26 -7 -29 -5 -9 10 8 36 23 36 9 0 13 -4 10
-10z m-2350 -10 c-3 -5 -12 -10 -18 -10 -7 0 -6 4 3 10 19 12 23 12 15 0z
m2509 -5 c-4 -11 -2 -13 9 -9 8 3 18 0 22 -6 3 -6 3 -10 -2 -9 -27 5 -45 -2
-40 -15 4 -11 1 -13 -11 -8 -37 14 -39 26 -8 43 17 9 32 17 33 18 1 0 0 -6 -3
-14z m182 -12 c-10 -10 -19 5 -10 18 6 11 8 11 12 0 2 -7 1 -15 -2 -18z m1722
2 c2 -18 1 -18 -10 -4 -7 9 -19 14 -27 11 -9 -3 -11 0 -6 7 11 18 39 9 43 -14z
m-2338 1 c0 -2 -7 -7 -16 -10 -8 -3 -12 -2 -9 4 6 10 25 14 25 6z m2381 -27
c4 -13 7 -19 8 -13 1 13 51 14 51 2 0 -5 8 -8 18 -8 15 0 15 2 2 11 -13 9 -13
10 0 6 9 -2 14 -14 12 -27 -2 -19 1 -21 25 -16 25 6 26 5 8 -6 -22 -13 -129
-19 -182 -11 -29 5 -32 9 -28 31 6 35 21 48 38 34 17 -14 28 -6 20 15 -4 11
-2 14 8 11 7 -2 16 -15 20 -29z m174 15 c8 -3 15 -1 15 6 0 6 5 8 10 5 6 -3
10 -11 10 -16 0 -6 -4 -8 -8 -5 -10 6 -38 -11 -31 -19 4 -3 19 0 33 7 32 14
47 0 44 -42 -1 -24 -1 -24 -5 3 -5 30 -28 36 -65 16 -15 -8 -19 -8 -14 0 7 11
-4 15 -35 12 -9 -1 -19 5 -22 13 -5 11 0 13 24 6 33 -10 37 -4 12 17 -17 14
-17 14 0 9 9 -3 24 -9 32 -12z m-5404 -7 c-6 -8 -7 -18 -3 -22 4 -5 1 -5 -5
-1 -19 10 -16 36 3 36 13 0 14 -3 5 -13z m999 -7 c0 -5 -2 -10 -4 -10 -3 0 -8
5 -11 10 -3 6 -1 10 4 10 6 0 11 -4 11 -10z m2677 -12 c-3 -8 -6 -5 -6 6 -1
11 2 17 5 13 3 -3 4 -12 1 -19z m-3527 2 c0 -5 -2 -10 -4 -10 -3 0 -8 5 -11
10 -3 6 -1 10 4 10 6 0 11 -4 11 -10z m2821 -37 c1 -10 0 -22 -1 -28 -1 -5 -3
-17 -4 -25 0 -8 -9 -21 -18 -28 -10 -7 -18 -20 -18 -28 0 -8 -4 -14 -10 -14
-10 0 3 45 19 65 5 5 12 20 15 33 6 17 3 22 -11 22 -15 0 -16 2 -3 10 22 14
30 12 31 -7z m905 -13 c-15 -9 -24 -19 -21 -22 3 -2 -8 -3 -24 0 -23 3 -31 -1
-37 -20 -4 -12 -7 -26 -6 -30 1 -3 -20 -5 -45 -3 -48 3 -93 -11 -93 -28 0 -5
-7 -6 -16 -3 -10 4 -25 -1 -35 -10 -10 -9 -22 -13 -28 -10 -15 10 -53 -13 -45
-26 5 -7 2 -8 -5 -3 -24 14 20 43 113 74 50 16 94 27 100 24 5 -3 6 -1 2 5 -6
11 46 39 102 56 12 4 22 11 22 16 0 4 9 6 21 3 20 -5 19 -6 -5 -23z m-3646 16
c0 -11 -19 -15 -25 -6 -3 5 1 10 9 10 9 0 16 -2 16 -4z m417 -2 c-3 -3 -12 -4
-19 -1 -8 3 -5 6 6 6 11 1 17 -2 13 -5z m2186 -27 c3 -8 -1 -14 -8 -14 -7 0
-11 6 -8 14 3 7 6 13 8 13 2 0 5 -6 8 -13z m642 3 c3 -5 1 -10 -4 -10 -6 0
-11 5 -11 10 0 6 2 10 4 10 3 0 8 -4 11 -10z m1685 -6 c0 -2 -7 -4 -15 -4 -8
0 -15 4 -15 10 0 5 7 7 15 4 8 -4 15 -8 15 -10z m195 -12 c-3 -3 -11 0 -18 7
-9 10 -8 11 6 5 10 -3 15 -9 12 -12z m-2238 -14 c-3 -8 -6 -5 -6 6 -1 11 2 17
5 13 3 -3 4 -12 1 -19z m2123 18 c0 -2 -7 -7 -16 -10 -8 -3 -12 -2 -9 4 6 10
25 14 25 6z m-1793 -30 c-9 -20 -14 -22 -20 -10 -6 11 -13 12 -28 3 -12 -6
-23 -8 -26 -5 -6 6 54 35 74 36 8 0 8 -6 0 -24z m2029 -2 c-4 -9 -9 -15 -11
-12 -3 3 -3 13 1 22 4 9 9 15 11 12 3 -3 3 -13 -1 -22z m-2571 -4 c-18 -20
-35 -26 -35 -12 0 4 10 12 23 18 32 16 32 16 12 -6z m2399 5 c-4 -8 -7 -15 -9
-15 -2 0 -5 7 -9 15 -3 9 0 15 9 15 9 0 12 -6 9 -15z m-2514 -19 c0 -3 -8 -12
-17 -22 -10 -9 -16 -31 -16 -49 1 -25 -5 -35 -21 -43 -21 -9 -22 -7 -25 29 -1
31 1 38 14 33 11 -4 14 -2 9 9 -4 10 4 21 23 31 32 17 33 18 33 12z m920 -24
c0 -14 -11 -21 -26 -15 -21 8 -17 23 6 23 11 0 20 -4 20 -8z m-811 -39 c-17
-22 -43 -42 -47 -38 -7 7 33 54 47 55 11 0 11 -3 0 -17z m41 14 c0 -2 -10 -12
-22 -23 l-23 -19 19 23 c18 21 26 27 26 19z m-2510 -11 c0 -3 -4 -8 -10 -11
-5 -3 -10 -1 -10 4 0 6 5 11 10 11 6 0 10 -2 10 -4z m4874 -11 c3 -8 1 -15 -4
-15 -6 0 -10 7 -10 15 0 8 2 15 4 15 2 0 6 -7 10 -15z m-2334 -15 c0 -5 -5
-10 -11 -10 -5 0 -7 5 -4 10 3 6 8 10 11 10 2 0 4 -4 4 -10z m2290 -20 c0 -5
-2 -10 -4 -10 -3 0 -8 5 -11 10 -3 6 -1 10 4 10 6 0 11 -4 11 -10z m148 -15
c-3 -3 -9 2 -12 12 -6 14 -5 15 5 6 7 -7 10 -15 7 -18z m-76 2 c7 -8 20 -12
28 -9 8 3 2 -5 -13 -18 -15 -12 -31 -19 -35 -16 -3 4 0 12 8 17 12 9 12 10 -3
5 -10 -3 -25 0 -33 8 -12 13 -12 15 4 19 29 8 30 7 44 -6z m-2427 -17 c-3 -5
-12 -10 -18 -10 -7 0 -6 4 3 10 19 12 23 12 15 0z m520 -49 c-3 -6 -14 -11
-23 -11 -15 1 -15 2 2 15 21 16 32 13 21 -4z m-100 -22 c-1 -11 -6 -24 -12
-27 -6 -4 -13 -17 -17 -29 -4 -11 -13 -24 -21 -27 -19 -7 -19 3 0 28 8 11 15
27 15 36 0 16 18 40 30 40 4 0 6 -9 5 -21z m-65 -109 c0 -5 -2 -10 -4 -10 -3
0 -8 5 -11 10 -3 6 -1 10 4 10 6 0 11 -4 11 -10z m280 -10 c-8 -5 -19 -10 -25
-10 -5 0 -3 5 5 10 8 5 20 10 25 10 6 0 3 -5 -5 -10z m-93 -25 c-4 -8 -11 -15
-17 -15 -7 0 -7 6 0 21 13 23 26 19 17 -6z m2218 -45 c3 -5 2 -10 -4 -10 -5 0
-13 5 -16 10 -3 6 -2 10 4 10 5 0 13 -4 16 -10z m53 -101 c8 -13 19 -18 29
-15 13 6 14 4 3 -9 -10 -12 -15 -13 -20 -4 -5 6 -13 8 -21 4 -9 -6 -11 -4 -6
7 3 9 0 21 -6 27 -6 6 -7 11 -1 11 5 0 15 -9 22 -21z m-183 1 c3 -5 1 -10 -4
-10 -6 0 -11 5 -11 10 0 6 2 10 4 10 3 0 8 -4 11 -10z m-3298 -36 c-3 -3 -12
-4 -19 -1 -8 3 -5 6 6 6 11 1 17 -2 13 -5z m3569 -16 c10 -13 15 -20 10 -16
-5 4 -15 3 -23 -3 -14 -12 -43 4 -43 24 0 7 4 7 12 -1 15 -15 42 -16 33 -2 -4
6 -11 8 -16 5 -5 -4 -9 -1 -9 4 0 18 16 13 36 -11z m-4006 -82 c0 -2 -7 -6
-15 -10 -8 -3 -15 -1 -15 4 0 6 7 10 15 10 8 0 15 -2 15 -4z m4191 -43 c16
-10 29 -21 29 -25 0 -4 9 -8 19 -8 11 0 23 -5 26 -11 11 -17 1 -19 -27 -5 -15
8 -30 11 -33 8 -4 -4 -5 0 -3 8 2 8 -4 15 -12 14 -8 0 -24 7 -34 18 -25 23 -4
24 35 1z m-3111 -107 c0 -3 -4 -8 -10 -11 -5 -3 -10 -1 -10 4 0 6 5 11 10 11
6 0 10 -2 10 -4z m4120 -56 c13 -9 13 -10 0 -10 -8 0 -22 5 -30 10 -13 9 -13
10 0 10 8 0 22 -5 30 -10z m-1041 -17 c3 -2 -12 -2 -31 -1 -20 2 -34 6 -31 11
4 6 52 -1 62 -10z m326 -12 c-6 -5 -25 10 -25 20 0 5 6 4 14 -3 8 -7 12 -15
11 -17z m762 13 c-3 -3 -12 -4 -19 -1 -8 3 -5 6 6 6 11 1 17 -2 13 -5z m-690
-56 c-3 -8 -6 -5 -6 6 -1 11 2 17 5 13 3 -3 4 -12 1 -19z m-133 -47 c3 -5 -1
-14 -8 -20 -12 -10 -14 -9 -11 6 2 10 4 19 4 21 2 5 10 2 15 -7z m273 -63 c-3
-8 -6 -5 -6 6 -1 11 2 17 5 13 3 -3 4 -12 1 -19z m164 -36 c-7 -2 -18 1 -23 6
-8 8 -4 9 13 5 13 -4 18 -8 10 -11z m-8 -49 c-7 -2 -19 -2 -25 0 -7 3 -2 5 12
5 14 0 19 -2 13 -5z m-4156 -618 c0 -8 -4 -12 -9 -9 -5 3 -6 10 -3 15 9 13 12
11 12 -6z m93 -15 c0 -5 -5 -10 -11 -10 -5 0 -7 5 -4 10 3 6 8 10 11 10 2 0 4
-4 4 -10z"/>
<path d="M4670 4380 c-13 -8 -12 -10 3 -10 9 0 17 5 17 10 0 12 -1 12 -20 0z"/>
<path d="M3234 4365 c8 -8 17 -15 20 -15 3 0 3 7 0 15 -4 8 -13 15 -21 15 -12
0 -12 -2 1 -15z"/>
<path d="M3286 4367 c-16 -12 -16 -14 -3 -14 9 0 18 6 21 14 3 7 4 13 3 13 -2
0 -11 -6 -21 -13z"/>
<path d="M5369 4405 c-1 -3 -3 -14 -4 -25 -1 -11 -3 -23 -4 -26 0 -4 -9 0 -18
7 -13 11 -15 11 -9 1 6 -10 0 -12 -24 -10 -17 2 -35 10 -40 18 -5 8 -13 11
-17 6 -4 -4 1 -14 11 -22 23 -16 92 -19 101 -4 3 6 11 10 17 10 7 0 6 -6 -2
-15 -11 -13 -8 -15 21 -15 l34 0 -23 18 c-16 13 -20 21 -12 30 7 9 7 9 -2 2
-19 -16 -27 -12 -23 10 3 17 -2 30 -6 15z"/>
<path d="M5514 4371 c2 -9 12 -16 24 -16 29 0 27 18 -2 26 -18 5 -23 3 -22
-10z"/>
<path d="M5415 4370 c-3 -5 -1 -10 4 -10 6 0 11 5 11 10 0 6 -2 10 -4 10 -3 0
-8 -4 -11 -10z"/>
<path d="M5220 4359 c0 -5 5 -7 10 -4 6 3 10 8 10 11 0 2 -4 4 -10 4 -5 0 -10
-5 -10 -11z"/>
<path d="M5415 4010 c-8 -13 5 -13 25 0 13 8 13 10 -2 10 -9 0 -20 -4 -23 -10z"/>
<path d="M4750 3836 c0 -2 7 -7 16 -10 8 -3 12 -2 9 4 -6 10 -25 14 -25 6z"/>
<path d="M5502 3692 c-8 -6 -2 -13 22 -25 28 -13 35 -13 39 -3 4 10 -1 12 -14
9 -11 -3 -19 0 -19 6 0 7 5 9 12 5 7 -4 8 -3 4 4 -8 14 -26 15 -44 4z"/>
<path d="M3480 3331 c0 -10 16 -15 48 -14 6 1 12 -3 12 -8 0 -5 5 -9 12 -9 16
0 -6 23 -24 26 -7 1 -21 5 -30 9 -11 4 -18 3 -18 -4z"/>
<path d="M3665 3270 c3 -5 8 -10 11 -10 2 0 4 5 4 10 0 6 -5 10 -11 10 -5 0
-7 -4 -4 -10z"/>
<path d="M3756 3151 c-4 -5 -2 -12 3 -15 5 -4 12 -2 15 3 4 5 2 12 -3 15 -5 4
-12 2 -15 -3z"/>
<path d="M700 3330 c0 -5 7 -10 16 -10 8 0 12 5 9 10 -3 6 -10 10 -16 10 -5 0
-9 -4 -9 -10z"/>
<path d="M4836 3171 c-3 -5 0 -14 7 -19 9 -8 16 -6 25 9 11 16 9 19 -7 19 -11
0 -22 -4 -25 -9z"/>
<path d="M4924 3162 c4 -3 14 -7 22 -8 9 -1 13 0 10 4 -4 3 -14 7 -22 8 -9 1
-13 0 -10 -4z"/>
<path d="M4885 3150 c3 -5 13 -10 21 -10 8 0 12 5 9 10 -3 6 -13 10 -21 10 -8
0 -12 -4 -9 -10z"/>
<path d="M4640 3119 c0 -5 5 -7 10 -4 6 3 10 8 10 11 0 2 -4 4 -10 4 -5 0 -10
-5 -10 -11z"/>
<path d="M4430 3129 c0 -5 11 -9 25 -9 14 0 25 2 25 4 0 2 -11 6 -25 8 -14 3
-25 1 -25 -3z"/>
<path d="M5987 3144 c-9 -9 2 -24 17 -24 7 0 13 7 13 15 0 15 -18 20 -30 9z"/>
<path d="M6010 2761 c0 -6 -8 -11 -17 -11 -13 0 -14 -3 -5 -12 10 -9 16 -9 28
4 11 11 12 18 5 22 -6 4 -11 2 -11 -3z"/>
<path d="M5936 2563 c-11 -3 -26 -11 -34 -19 -11 -12 -10 -14 12 -14 15 0 30
8 36 20 6 11 9 19 8 19 -2 -1 -12 -4 -22 -6z"/>
<path d="M5926 2054 c-8 -20 20 -37 41 -25 12 7 13 10 4 11 -7 0 -11 6 -8 13
3 7 -3 13 -14 13 -10 0 -21 -6 -23 -12z"/>
<path d="M5935 1970 c-3 -5 -1 -10 4 -10 6 0 11 5 11 10 0 6 -2 10 -4 10 -3 0
-8 -4 -11 -10z"/>
<path d="M6090 2056 c0 -9 5 -16 10 -16 6 0 10 4 10 9 0 6 -4 13 -10 16 -5 3
-10 -1 -10 -9z"/>
<path d="M6208 2048 c5 -5 16 -8 23 -6 8 3 3 7 -10 11 -17 4 -21 3 -13 -5z"/>
<path d="M907 4319 c7 -7 15 -10 18 -7 3 3 -2 9 -12 12 -14 6 -15 5 -6 -5z"/>
<path d="M948 4303 c7 -3 16 -2 19 1 4 3 -2 6 -13 5 -11 0 -14 -3 -6 -6z"/>
<path d="M476 4235 c-2 -7 10 -9 33 -7 56 5 60 9 14 13 -25 3 -44 0 -47 -6z"/>
<path d="M595 4240 l-30 -8 33 -1 c17 0 32 4 32 9 0 6 -1 9 -2 9 -2 -1 -16 -5
-33 -9z"/>
<path d="M648 4243 c7 -3 16 -2 19 1 4 3 -2 6 -13 5 -11 0 -14 -3 -6 -6z"/>
<path d="M7890 4234 l-35 -13 37 0 c20 -1 39 3 43 8 9 16 -8 18 -45 5z"/>
<path d="M1040 4230 c0 -6 7 -10 15 -10 8 0 15 2 15 4 0 2 -7 6 -15 10 -8 3
-15 1 -15 -4z"/>
<path d="M7760 4230 c14 -4 34 -8 45 -8 16 0 15 2 -5 8 -14 4 -34 8 -45 8 -16
0 -15 -2 5 -8z"/>
<path d="M7950 4229 c0 -5 11 -9 25 -9 14 0 25 2 25 4 0 2 -11 6 -25 8 -14 3
-25 1 -25 -3z"/>
<path d="M1098 4223 c7 -3 16 -2 19 1 4 3 -2 6 -13 5 -11 0 -14 -3 -6 -6z"/>
<path d="M938 4203 c7 -3 16 -2 19 1 4 3 -2 6 -13 5 -11 0 -14 -3 -6 -6z"/>
<path d="M7720 4189 c0 -5 5 -7 10 -4 6 3 10 8 10 11 0 2 -4 4 -10 4 -5 0 -10
-5 -10 -11z"/>
<path d="M6377 1700 c3 -11 7 -20 8 -20 1 0 5 9 8 20 3 12 0 20 -8 20 -8 0
-11 -8 -8 -20z"/>
<path d="M6300 1703 c0 -10 40 -36 46 -30 3 2 -7 12 -21 21 -14 9 -25 13 -25
9z"/>
<path d="M6445 1690 c3 -5 1 -10 -4 -10 -7 0 -7 -7 1 -20 7 -11 16 -20 21 -20
4 0 5 5 1 12 -4 7 7 2 24 -11 34 -24 42 -37 16 -27 -8 3 -12 2 -9 -4 12 -19
34 -10 32 13 -1 18 -27 60 -27 43 0 -3 -9 3 -20 14 -21 21 -46 28 -35 10z"/>
<path d="M6380 1606 c0 -2 7 -6 15 -10 8 -3 15 -1 15 4 0 6 -7 10 -15 10 -8 0
-15 -2 -15 -4z"/>
<path d="M6428 1582 c-16 -17 -16 -18 2 -30 12 -7 21 -8 25 -2 3 6 0 10 -7 11
-7 0 -4 4 7 9 13 6 15 9 5 9 -13 1 -13 2 0 11 13 9 13 10 0 9 -8 0 -23 -8 -32
-17z"/>
<path d="M6455 1529 c-11 -16 -1 -19 13 -3 7 8 8 14 3 14 -5 0 -13 -5 -16 -11z"/>
<path d="M6500 1530 c0 -5 5 -10 11 -10 5 0 7 5 4 10 -3 6 -8 10 -11 10 -2 0
-4 -4 -4 -10z"/>
<path d="M6530 1520 c0 -5 5 -10 11 -10 5 0 7 5 4 10 -3 6 -8 10 -11 10 -2 0
-4 -4 -4 -10z"/>
<path d="M6535 1490 c-4 -6 -16 -8 -28 -4 -20 6 -19 5 4 -24 13 -17 31 -31 39
-31 13 0 13 1 0 12 -21 17 -25 41 -6 34 10 -4 13 -1 9 9 -6 17 -10 17 -18 4z"/>
<path d="M6590 1439 c0 -5 5 -7 10 -4 6 3 10 8 10 11 0 2 -4 4 -10 4 -5 0 -10
-5 -10 -11z"/>
<path d="M6576 1405 c4 -8 13 -15 21 -15 13 0 13 3 3 15 -7 8 -16 15 -21 15
-5 0 -6 -7 -3 -15z"/>
<path d="M6600 1364 c8 -10 15 -21 17 -23 1 -2 10 5 20 14 13 13 14 17 3 13
-8 -3 -24 -1 -35 5 -19 10 -19 9 -5 -9z"/>
<path d="M6695 1320 c10 -11 23 -20 28 -20 6 0 0 9 -13 20 -13 11 -25 20 -28
20 -3 0 3 -9 13 -20z"/>
<path d="M7750 1140 c8 -5 20 -10 25 -10 6 0 3 5 -5 10 -8 5 -19 10 -25 10 -5
0 -3 -5 5 -10z"/>
<path d="M7795 1100 c3 -5 13 -10 21 -10 8 0 14 5 14 10 0 6 -9 10 -21 10 -11
0 -17 -4 -14 -10z"/>
</g>
</svg>
